<?xml version="1.0"?>
<svg xmlns="http://www.w3.org/2000/svg" version="1.2" baseProfile="tiny" width="800" height="122" viewBox="0 0 800 122" stroke-linecap="round" stroke-linejoin="round">
<g id="gadm36_USA_1">
<path d="M 202.753 95.0375 202.7291 94.352 202.5915 91.6911 202.8916 89.2448 203.091 87.5775 203.4233 85.0282 203.1973 84.8026 204.5075 84.7869 206.1218 84.8147 208.9655 84.83 209.0378 85.2361 209.4809 87.3824 209.8888 89.5106 210.0334 89.7367 210.1375 90.1483 210.3107 90.3405 210.3125 90.7519 210.5435 90.8756 210.1686 91.1762 210.1792 91.4264 209.9928 91.828 210.0325 92.1473 210.2109 92.4819 210.051 93.0828 210.0675 93.2619 210.3041 93.6875 208.5201 93.7044 207.1214 93.7049 204.5279 93.6914 204.4478 93.9879 204.6801 94.2598 204.9596 94.4192 204.8953 94.8414 204.9759 94.9739 204.5956 95.3123 204.1587 95.3303 204.1501 95.2266 203.8432 94.9948 203.832 94.4686 203.6152 94.3877 203.4472 94.6552 203.3859 95.118 202.753 95.0375 Z"/>
<path d="M 3.5802 47.6177 3.0169 47.304 3.093 47.1965 3.5357 47.1925 4.0447 47.4244 3.868 47.6919 3.5802 47.6177 Z M 799 47.1775 798.7058 47.2834 798.4124 47.034 798.7785 46.9385 799 47.1775 Z M 7.2454 47.5869 7.0144 47.3225 7.3393 47.3095 7.2454 47.5869 Z M 6.351 47.7357 5.973 47.6616 6.1596 47.16 6.7241 47.0785 6.5685 47.3188 7.0132 47.3596 7.0181 47.5405 6.351 47.7357 Z M 5.3072 47.6461 5.0947 47.7054 4.7118 47.5492 5.2464 47.4262 5.3344 47.1261 5.6238 47.2013 5.3072 47.6461 Z M 793.6354 47.3135 793.3408 47.2298 793.9597 47.0347 794.1455 46.7284 794.396 46.7956 794.0853 47.0609 793.6354 47.3135 Z M 15.9608 46.1279 16.1436 46.2965 15.6606 46.4497 15.6075 46.2082 15.9608 46.1279 Z M 783.4964 45.0309 782.9355 44.979 783.2332 44.7647 784.2808 44.7943 784.6798 44.9414 784.2623 45.2521 783.8632 45.3206 783.4523 45.2005 783.4964 45.0309 Z M 785.2024 46.1292 785.3444 45.8815 785.6508 45.8574 785.428 46.2031 785.2024 46.1292 Z M 27.6128 43.4046 27.8549 43.2149 28.4945 43.1687 27.6344 42.9301 27.925 42.6517 28.5409 42.5169 28.812 42.538 28.875 42.8864 29.5878 42.5868 29.6669 42.8147 29.3389 42.8949 29.6005 43.2208 28.9689 43.4046 28.7367 43.6912 27.6919 43.8231 27.2919 44.0291 26.9628 44.0587 26.5917 44.2102 26.1291 44.1153 26.4275 43.9125 26.7898 43.896 27.3769 43.711 27.6259 43.7048 27.6128 43.4046 Z M 21.3992 45.2462 21.7932 45.0078 22.0226 45.1631 21.3992 45.2462 Z M 24.9961 44.1205 24.8453 43.8345 25.2271 43.5979 25.7985 43.5227 26.2163 43.6141 26.1049 43.9141 25.1468 44.2366 24.7292 44.6511 24.308 44.8314 23.8299 44.8975 24.0584 44.5924 24.0396 44.3788 24.4463 44.1687 24.9961 44.1205 Z M 13.5296 46.9513 13.0787 46.8617 12.7649 46.9056 12.6278 46.745 13.3023 46.6529 13.4876 46.7654 14.2572 46.7511 14.2943 46.8648 13.5296 46.9513 Z M 10.9688 46.9451 10.97 46.7641 11.4085 46.5078 11.6729 46.5263 11.6692 46.1675 12.0077 46.0674 12.4364 46.2891 12.264 46.4997 11.9719 46.5609 11.4925 46.8883 10.9688 46.9451 Z M 30.6465 42.2706 30.7033 42.4058 30.0992 42.4509 29.9526 42.282 30.2512 42.058 30.6465 42.2706 Z M 31.4418 42.0858 31.1999 42.3002 30.9158 41.9654 31.2782 41.8856 31.4418 42.0858 Z M 104.9979 37.2853 105.7347 37.3177 105.975 37.6503 105.7455 37.8034 105.2215 37.6498 104.9901 37.4709 104.9979 37.2853 Z M 104.296 37.5026 103.8627 37.5849 103.4242 37.3101 103.6837 37.0944 104.331 37.1269 104.296 37.5026 Z M 104.4705 37.7664 104.613 37.3543 104.9612 37.4174 104.8994 37.5894 105.5431 37.8349 105.3303 38.0191 105.3224 38.2444 105.0157 38.2961 104.4705 37.7664 Z M 104.3778 36.6186 104.5947 36.8048 103.99 37.0039 103.685 36.9686 103.728 36.4904 103.963 36.3349 104.3778 36.6186 Z M 41.7089 40.0643 41.6695 39.5683 42.1008 39.4664 42.4387 39.8291 42.4364 39.9743 41.8569 39.8939 41.7089 40.0643 Z M 106.135 39.4388 106.6539 39.6728 106.321 40.0326 106.0926 39.6146 106.135 39.4388 Z M 102.5594 39.632 102.7916 39.5537 103.0671 39.7281 102.5557 39.8282 102.5594 39.632 Z M 35.7633 41.0988 35.3817 41.1569 34.6465 41.1476 34.1178 41.2476 33.8587 41.5181 33.1901 41.685 32.7614 41.6152 32.539 41.2693 33.0949 41.0556 33.405 40.6622 33.683 40.475 33.9584 40.5547 34.8775 40.2446 35.6214 40.2235 35.8869 40.3885 35.9238 40.9481 35.7633 41.0988 Z M 103.5136 40.0167 103.5118 40.2397 104.0853 40.6939 104.3074 41.0605 103.9258 41.0226 103.0461 40.1328 103.0856 39.7888 103.2895 39.7418 103.5136 40.0167 Z M 43.2636 40.4461 43.2643 40.029 43.7763 39.8429 43.9215 40.0426 43.2964 40.3559 43.2636 40.4461 Z M 104.0449 39.9531 104.2717 40.051 104.1381 40.3489 103.8069 39.9815 104.0449 39.9531 Z M 107.2419 40.2001 107.1663 40.2977 106.5827 40.2483 107.1456 39.8616 107.2419 40.2001 Z M 107.5046 39.4385 107.3591 39.7111 106.8018 39.672 106.1777 39.328 106.6261 38.9889 106.4163 38.9146 106.4424 38.4719 106.6928 38.3237 107.4392 38.1626 107.8676 38.4849 108.1599 38.9474 108.063 39.0759 108.0911 39.4533 107.8827 39.747 107.4925 39.6859 107.5046 39.4385 Z M 99.8589 32.9704 100.1564 32.884 100.6677 33.1349 99.9615 33.1031 99.8589 32.9704 Z M 19.8873 21.5962 18.9469 21.5731 18.1177 21.851 17.4517 21.7201 17.2653 21.5777 17.2387 21.2453 17.6695 21.0067 18.0667 21.2025 18.5763 21.1747 19.1137 21.2812 20.2023 20.994 20.6609 21.0079 21.0686 21.17 21.2018 21.47 22.0785 21.5823 22.2916 21.7352 23.7925 21.8047 24.1481 22.0213 23.8377 22.1741 23.056 22.0919 22.2464 22.4173 21.9291 22.4173 21.5365 22.2216 20.8231 22.129 20.6007 21.8973 19.8873 21.5962 Z M 30.8444 28.655 30.8421 29.0673 31.1334 29.4015 30.1334 29.5031 29.7537 29.7059 29.2738 29.5261 28.8363 29.5349 28.2082 29.2984 27.6757 29.2075 27.0712 28.8009 27.2762 28.6932 28.322 28.7523 28.5096 28.5323 29.128 28.3771 29.8785 28.3771 30.4541 28.4524 30.8444 28.655 Z M 42.01 31.8328 41.5793 32.3619 41.1256 32.3506 41.1996 32.0922 42.01 31.8328 Z M 72.2013 28.4581 72.5591 28.6284 72.0692 28.8426 71.3045 29.3468 71.2805 29.5607 70.5674 29.7173 70.4069 29.5778 70.8763 29.2246 71.4566 29.0175 72.2013 28.4581 Z M 70.5069 28.4709 70.6308 28.2613 71.071 28.3933 70.72 28.86 70.4247 28.6342 70.5069 28.4709 Z M 73.2621 28.4141 73.342 28.1327 73.884 28.1837 73.7045 28.5091 73.2621 28.4141 Z M 85.0901 29.087 84.84 28.9295 84.7844 28.9619 84.7936 29.0268 84.8909 29.1936 84.1214 29.3153 83.5197 29.1519 81.8798 28.9619 81.3656 29.0222 79.9017 29.1241 79.3636 29.2312 79.054 29.1611 78.4146 28.8183 77.8078 28.8091 77.3723 28.5774 76.9983 28.567 77.3665 28.1547 77.2658 27.952 77.6966 27.7575 77.8032 27.5768 77.78 27.6139 77.6642 27.725 77.553 27.7065 77.5623 27.6602 77.3862 27.8084 76.8998 28.0308 76.4308 28.391 76.154 28.4477 76.0752 28.4153 75.4139 28.1802 74.9403 28.2161 75.319 27.9185 74.6727 27.7818 74.3566 27.637 73.8111 27.615 73.2911 27.6926 73.1255 27.5803 73.4717 27.4054 73.1393 27.2792 73.1011 27.0672 73.342 26.6642 72.7166 27.0719 72.2129 26.9665 71.6326 27.2433 71.1092 26.9236 70.9655 27.2896 70.5393 27.3822 70.2382 27.0672 70.771 26.5206 69.8109 27.0058 69.5445 27.3371 69.321 27.3267 69.372 27.5305 69.8063 27.8513 69.5017 28.0308 69.2145 28.003 69.6314 28.1373 69.9753 27.8883 70.3459 28.2312 69.4924 28.7349 69.9545 28.8218 69.4079 29.0141 68.994 29.2748 68.2597 29.3737 67.2596 29.2732 66.9551 29.3893 65.9074 29.9565 65.5879 29.9583 65.3777 30.2345 64.6951 30.3297 64.1158 30.4875 63.7872 30.8269 63.1908 30.9759 62.5631 30.8602 62.1528 31.0623 61.5878 30.9554 61.343 30.7313 61.5689 30.4775 62.139 30.3501 63.2873 29.9299 63.4227 29.659 62.4783 30.011 62.119 29.9917 61.6102 29.7055 62.0074 29.1299 62.6351 28.7291 62.8818 28.3551 62.9524 27.9879 62.6513 27.6058 63.4365 27.4552 64.1986 27.1286 64.8969 26.9051 65.1946 27.1078 65.6242 27.1784 66.1246 27.058 67.1622 27.2201 67.7459 27.2016 67.9451 27.3174 67.5745 27.1089 67.1993 27.1414 66.3747 26.9514 65.6891 26.6688 66.1767 26.304 67.153 25.9462 68.1443 25.8303 66.9584 25.9462 66.7164 25.9056 66.047 26.1234 65.9578 26.3909 64.6931 26.4233 64.5495 26.326 64.7661 26.0724 64.568 25.8118 64.9653 25.6624 65.1795 25.3903 65.2212 25.2883 65.5733 24.8251 65.6231 24.5298 65.3891 24.3885 65.5443 24.0804 65.4019 23.9727 65.4297 24.0144 65.3567 24.3885 65.4992 24.6259 65.4806 24.8946 65.0776 25.4968 64.7255 25.7099 64.568 25.5895 64.2159 25.2652 63.9102 24.9919 63.1783 24.7834 63.2802 24.8158 63.9368 25.0115 64.2773 25.4169 64.6966 25.6809 64.6873 25.9705 64.4476 26.1824 64.2843 26.3805 63.4296 26.6376 63.191 26.8808 62.4799 26.9919 61.9645 27.2155 61.7155 27.5988 61.3357 27.7123 60.774 28.0169 60.5064 28.4257 60.0791 28.7257 59.6946 28.7859 60.0606 29.0407 59.758 29.3851 59.12 29.6337 58.9746 29.8958 58.3384 30.0486 57.8481 30.0415 57.5337 30.391 57.0823 30.4958 56.6311 30.7524 56.4368 31.2676 57.1842 31.3081 57.5506 31.2631 58.0291 31.4339 58.3589 31.6532 58.229 31.9929 57.7847 32.2498 57.1314 32.3056 56.8662 32.8204 56.4817 32.8555 56.4868 33.2284 55.7024 33.4216 55.6147 33.5975 54.8147 33.5819 54.4109 33.7787 54.4567 33.9377 53.9225 34.0409 53.7909 34.2939 53.3469 34.126 53.0703 34.4703 53.0322 34.6699 52.3109 34.7284 51.4297 35.1102 51.6071 35.5592 50.9336 35.892 50.4279 35.9552 50.0326 36.2698 49.7356 36.3962 49.3382 36.1818 48.6945 36.7515 48.5692 36.6034 48.1131 36.6905 48.3895 36.8653 48.2848 37.0543 47.7961 36.974 47.5793 37.091 47.2519 37.0299 47.0193 37.3457 47.3089 37.5804 47.2142 37.8299 46.9475 38.0487 46.1333 38.0666 45.9714 38.2649 44.8883 38.4247 44.5811 38.888 44.2136 38.8648 44.3804 38.5023 43.9132 38.4394 43.4336 38.6289 43.1665 38.8498 42.7512 38.9583 42.361 39.2678 41.3445 39.3366 40.7858 39.5369 40.1875 39.4826 40.5276 39.0201 39.9932 38.9711 39.7535 39.1917 39.8019 39.4191 39.3448 39.7976 39.0268 39.8067 39.1912 40.094 38.9832 40.1706 38.7053 39.9904 38.5372 40.2858 38.1736 40.2533 37.9677 39.7925 37.7133 39.9359 37.6019 40.3261 37.4194 40.4735 37.0589 40.4422 36.877 40.1598 36.4392 40.0451 36.4081 40.2748 36.7639 40.3928 36.3373 40.7087 36.1028 40.77 36.2498 40.245 36.1906 40.0831 36.5028 39.9448 37.1702 39.9229 37.2056 39.7161 37.6635 39.5056 37.867 39.2835 38.5254 38.7932 39.5282 38.3511 40.5375 38.1736 41.1708 38.2335 41.7173 38.6821 41.8343 38.4143 42.8319 38.4125 42.3564 38.2102 42.3796 38.0149 42.686 37.5353 43.1985 37.2204 43.9105 36.8911 44.5469 36.717 45.8813 36.2345 46.2194 36.3673 46.5378 36.289 46.4787 35.8666 47.2518 35.2543 47.9844 34.971 48.4616 34.6717 48.6261 34.4634 48.9057 33.3712 49.2158 33.1895 49.0012 33.0362 49.1223 32.6174 50.0039 32.0892 50.202 31.8259 50.0001 31.7076 47.7943 32.2756 47.2897 32.218 47.1665 31.9972 46.7687 31.8929 47.0018 31.4971 46.2489 31.6925 46.2658 31.9311 46.0665 32.1132 46.3509 32.5617 46.1831 32.7547 45.6336 32.7181 45.0584 32.1068 44.4513 31.6443 44.1129 31.5987 43.9812 31.8697 43.7409 31.9264 43.4869 31.6863 42.9879 31.6743 42.7762 31.3114 42.4825 31.3639 41.811 31.6707 41.3992 31.705 40.6719 31.9383 40.4799 32.1715 39.673 32.4164 39.46 32.1459 39.6311 31.8833 39.564 31.5017 39.1026 31.0681 39.1855 30.6034 39.7429 30.3192 39.387 30.019 39.1705 29.6526 38.6737 29.2098 38.5437 28.926 38.092 28.8009 37.9477 29.2312 37.4631 29.2699 36.5428 29.5458 35.9122 29.6255 34.8909 29.6475 34.4401 29.5839 34.2056 29.3962 34.2192 29.1484 33.8833 29.0812 33.1607 28.5624 32.724 28.5265 32.1137 28.2219 31.7744 27.9335 32.5005 27.5872 32.7298 27.3116 34.0351 27.4517 34.1543 27.666 34.8353 27.4645 35.1318 27.5409 35.1063 27.9185 35.3044 27.9335 35.9286 27.6729 36.2529 27.4367 35.8741 27.2247 35.5869 27.2479 35.1329 26.868 35.3738 26.5762 34.8098 26.5866 34.9928 26.7812 34.7496 27.0221 34.328 27.0684 34.313 27.2433 33.4467 27.322 33.2985 27.1275 32.5897 27.095 32.1403 26.956 32.2897 26.7534 31.7003 26.641 31.5427 26.8124 30.9926 26.6723 30.9579 26.3735 30.5699 26.2982 30.2931 26.0539 30.7355 25.9427 29.7882 25.6555 30.1808 25.381 29.9781 25.1829 31.0065 25.0926 30.7795 24.9397 30.7749 24.5066 31.6782 23.9553 31.8311 23.7839 32.372 23.5604 33.2232 23.3508 33.5382 23.1493 32.7333 22.935 32.9058 22.6536 33.3506 22.2691 33.9111 22.0097 34.5631 21.9622 35.2302 22.0641 35.47 22.2205 36.2089 22.4822 36.7867 22.4023 37.8986 21.8927 38.2367 21.5916 38.6861 21.36 39.1829 21.5464 40.3631 21.5267 41.0116 21.4248 41.7934 20.8816 41.8397 20.6616 41.4343 20.1358 41.4042 19.7583 40.758 19.4247 40.2704 19.3819 40.2843 19.1873 41.2432 19.2105 41.798 18.9221 41.8119 18.7159 41.5479 18.4889 41.0684 18.3477 40.6422 18.4287 40.399 18.6164 39.7655 18.5897 37.8812 19.1329 37.6889 19.4595 37.3068 19.566 37.2211 19.2116 36.4486 18.8769 35.7305 19.09 34.906 19.0391 33.9702 19.0483 33.0298 19.1641 32.3997 19.3494 31.9412 19.2614 29.6712 19.0113 29.3296 18.8897 29.1442 18.5538 29.2554 18.3268 28.6555 18.1044 28.6937 17.8531 29.0122 17.8242 29.3608 17.5242 30.102 17.5752 30.307 17.7663 30.8386 17.9782 31.5659 17.7142 30.1576 17.6678 29.8704 17.4501 28.3648 17.2555 27.0677 17.1953 26.103 16.8907 25.6502 16.8247 26.22 16.519 26.8778 16.4634 26.8871 16.241 27.568 16.2225 28.2722 16.0279 28.8107 15.6816 29.6758 15.4859 30.0696 15.6295 30.893 15.6515 31.2555 15.5415 30.4738 15.3435 30.871 15.1153 31.4454 14.9717 32.5816 14.8663 33.1919 14.6474 34.4103 14.5501 35.243 14.7088 34.9859 14.9358 35.0345 15.2624 34.7948 15.3886 35.1387 15.684 36.5644 15.75 37.4179 15.6631 37.6959 15.7882 38.231 15.809 38.7834 15.7036 39.484 15.8577 40.0793 15.3597 41.3487 15.3643 41.0024 15.1107 40.1268 14.9717 39.2802 15.0933 39.3242 14.6903 38.5749 14.2861 38.0422 14.2444 37.7144 13.9537 38.4221 13.7811 38.8725 14.1135 38.9328 14.4239 39.2292 14.6138 40.0203 14.8883 41.1691 14.7864 41.8362 15.0643 43.0349 15.0076 43.1322 14.461 42.0076 14.5362 41.7436 14.4065 41.0533 14.4436 40.6688 14.703 40.3075 14.703 39.3636 14.2803 39.5767 13.8842 40.1951 13.685 39.4597 13.531 38.5656 13.6561 37.8615 13.6792 37.5245 13.5252 36.964 13.5877 35.6703 13.443 35.2314 13.2218 34.9465 12.7191 34.3269 12.22 33.6644 12.0903 33.0344 11.7845 32.6928 11.7324 31.6076 11.3305 30.4633 11.173 29.3747 10.5245 29.7001 10.1504 29.7001 9.481 31.0007 9.5424 31.7234 9.5146 34.3361 9.3247 35.785 8.8649 36.6443 8.3159 36.8366 8.0032 36.6211 7.8828 36.8065 7.5747 38.0781 6.9702 38.2147 6.7663 39.066 6.4525 40.6364 6.4201 41.9694 6.1224 43.1623 5.6846 43.8143 6.1143 44.1756 5.8873 43.6579 5.4623 44.5509 5.1554 45.5237 5.2851 47.9326 5.1276 49.122 4.8624 49.6872 4.6354 50.7631 4.0667 52.9311 4.3215 53.4627 4.6076 53.0458 4.7836 52.1621 4.9469 52.7134 5.1322 53.6492 5.0905 53.5206 4.8855 54.2896 4.5219 54.7667 4.7164 55.2289 5.0627 56.0535 5.1322 56.5352 5.2619 57.1004 5.0118 58.0084 5.0118 58.6569 4.9238 59.8463 5.1913 60.0328 5.0118 60.8701 5.1565 60.2934 5.5387 60.584 5.6928 61.8163 5.753 61.58 6.0124 62.8633 6.068 63.7481 5.9429 64.7116 6.1004 65.5779 6.0078 66.1153 5.8549 67.6429 5.8931 68.1026 6.068 68.9284 6.0969 69.4565 6.3008 69.9417 6.244 70.9621 6.5231 72.0414 6.6274 73.5088 6.559 75.1302 6.6656 76.3115 6.9945 77.7012 7.0501 78.2015 6.9111 79.142 6.8741 80.9208 6.7397 81.9493 6.8879 82.7217 7.13 83.0333 7.3141 84.0432 7.4346 84.6025 7.5747 84.9326 7.7774 85.7829 7.7581 85.7826 8.9767 85.7744 11.4188 85.7835 13.2943 85.7826 14.7821 85.7843 16.8758 85.7856 19.1213 85.7813 20.9453 85.7839 23.3936 85.7844 25.328 85.7843 26.5649 85.7861 28.5291 86.8562 28.7204 87.0171 28.5227 88.0709 28.7972 88.7246 28.4609 90.1211 28.4209 89.8432 29.0232 90.1432 29.2262 90.8911 29.4159 91.1058 29.7411 93.3334 30.8897 93.6801 31.6345 94.0555 31.4308 95.0739 31.0757 95.6136 31.063 95.8898 30.8053 95.8758 30.4015 96.2374 30.3952 96.4735 30.0106 97.0242 29.9559 98.0649 29.6564 98.6117 29.8832 99.0671 30.1778 98.9075 30.4799 99.2207 30.8061 99.7968 30.8776 100.2815 31.1398 100.449 31.4777 100.7812 31.7404 101.7084 32.0318 102.0232 32.3002 102.7336 32.6945 102.556 32.7909 103.1962 33.3126 103.4239 33.6546 103.8698 34.0111 104.5705 34.7738 105.2511 35.4088 104.9823 35.6744 105.7025 35.778 105.5284 36.1587 106.0843 36.3091 106.1682 36.7697 106.7332 36.7404 107.8324 37.1988 108.511 37.2856 108.8641 37.5084 109.2083 37.5609 109.3033 37.7868 109.7026 37.8877 110.015 37.8291 110.2427 38.0843 110.2138 38.272 109.8658 38.5952 109.9164 38.9948 110.2623 39.6802 109.9022 39.958 109.7374 40.2454 109.1439 40.6958 108.3372 40.8412 108.1414 40.7083 108.0369 40.1358 107.8168 39.8999 108.2964 39.5881 108.31 39.0872 108.239 38.7431 107.5165 38.0897 107.0481 38.096 106.337 38.3737 106.1171 38.9203 105.87 39.2119 105.3905 39.0182 105.3003 38.7608 105.403 38.5546 105.7157 38.3521 105.8997 38.1012 105.8232 37.3402 105.5577 37.2879 105.0333 36.9496 104.992 36.7785 104.534 36.6917 104.7089 36.4441 104.0431 36.2241 103.7447 35.939 103.8594 35.8115 102.9145 35.6413 102.4079 35.4429 102.5711 35.0888 102.4322 34.6652 102.0788 34.4733 102.1214 34.3015 101.6915 33.8039 100.8664 33.1986 100.1826 32.8832 99.6672 32.8003 99.5385 32.5283 99.2042 32.2174 99.2758 31.9166 98.8237 31.8079 98.6787 31.2746 98.2814 31.205 98.2381 31.4898 98.8188 32.281 98.7642 32.4019 99.0231 32.9802 98.8002 33.1883 98.4331 33.1079 98.2236 32.8927 97.7465 32.7053 97.1117 32.8119 97.2526 32.4496 96.7106 31.835 96.3526 31.9823 95.7737 31.7393 94.9554 31.5103 94.6331 31.6011 95.6586 31.8038 95.5965 31.9252 96.0361 32.0581 96.453 32.2909 96.8188 32.7986 96.0865 32.9824 95.5587 32.987 95.382 33.184 94.8673 32.7668 94.4771 32.8073 93.172 32.2686 92.6137 31.911 92.5991 31.7053 91.6204 31.2266 91.1161 31.1595 90.3328 30.8591 88.836 30.415 88.5889 30.2198 88.9413 30.0806 89.1609 29.8566 88.8317 29.4336 88.2078 29.6635 87.9158 29.5661 87.6823 29.7856 87.2481 29.8881 86.5276 29.8511 84.7598 29.4625 85.1328 29.3491 85.0901 29.087 Z M 96.0322 34.0308 96.1233 33.5448 95.9126 33.387 96.862 33.2322 97.2895 33.0297 98.5198 33.4379 99.2381 33.5669 99.3034 33.8254 98.9665 33.9252 99.4648 34.5911 99.3604 34.8563 98.9342 34.8432 97.7411 34.3193 97.9143 34.8125 97.5444 35.0632 96.8641 34.7582 96.5553 34.4397 96.6479 34.3316 96.0322 34.0308 Z M 58.9562 35.4736 58.6278 35.7032 58.2531 35.6208 58.6165 35.4028 58.9562 35.4736 Z M 97.2542 35.295 97.703 35.2037 97.8732 35.5423 97.7996 35.7741 97.2236 35.8876 97.2542 35.295 Z M 59.0596 34.8306 59.5276 34.8319 59.9379 34.976 59.9355 35.1496 58.929 35.4063 58.346 35.4562 57.8127 35.7656 57.8759 35.9456 56.932 36.4492 56.5973 36.3558 56.9273 36.1058 56.9526 35.7312 56.6368 35.5954 56.5417 35.9919 56.3786 36.1569 55.7078 35.8956 55.714 35.5083 55.5442 35.2933 55.2174 35.226 55.4818 34.7492 56.3651 34.4033 56.8382 34.437 57.0875 34.8898 57.291 34.6275 57.0259 34.2557 57.0369 34.0792 57.433 33.9025 57.7297 33.9207 57.8891 34.1334 58.7068 34.1063 58.5862 33.8884 59.2537 33.7716 59.5799 33.9695 60.1812 33.8562 60.5154 34.0954 60.1941 34.268 60.2229 34.4396 60.9633 34.518 60.5777 34.9391 59.2906 34.7369 59.0596 34.8306 Z M 100.0738 35.1036 100.1801 34.9746 99.7216 34.2295 99.786 34.0302 99.5278 33.3353 99.3134 33.1569 99.4953 32.8954 99.8148 33.2998 100.1608 33.25 100.9341 33.4754 100.6156 33.6531 101.0943 34.2557 101.4991 34.5199 101.6608 35.0606 101.0245 35.2921 100.9275 35.4688 100.2789 35.8153 100.018 35.8068 99.9016 35.3648 100.0738 35.1036 Z M 102.063 38.6206 102.2975 38.4637 102.6533 38.68 102.3956 38.7853 102.063 38.6206 Z M 56.7035 36.7498 56.3725 37.0068 56.1835 36.8005 56.7035 36.7498 Z M 102.0011 36.6714 101.6979 36.8247 101.5602 37.2818 101.7305 37.3823 101.449 37.8913 101.1055 37.9852 100.898 37.7615 100.7002 37.3162 101.1448 37.0253 100.7537 36.8565 100.5297 36.5837 100.4198 36.2673 100.6442 36.0829 101.0338 36.2255 101.9621 36.3869 102.0011 36.6714 Z M 101.6629 36.066 101.264 35.8296 101.5457 35.6605 102.2392 35.7451 102.8575 35.8995 103.4106 35.8986 103.6291 36.0562 103.7306 36.6268 103.1523 37.1087 102.9856 37.0438 102.2378 37.1345 101.9738 36.5905 102.0575 36.3905 101.6629 36.066 Z M 99.4562 35.5869 99.5874 35.5649 99.9812 36.6208 99.9293 37.5071 99.5614 37.5801 98.9872 36.8996 99.0041 36.7466 98.6196 36.5745 98.2591 36.1328 98.2335 35.6518 98.3274 35.3188 97.8996 35.3546 97.5915 35.0923 98.185 34.6275 98.5486 34.8286 98.9832 34.9393 99.3563 34.9308 99.5679 35.1203 99.4364 35.2742 99.4562 35.5869 Z M 105.4464 39.656 105.8064 39.7316 105.8566 39.9172 105.6077 40.1505 105.8775 40.4137 105.8849 40.8073 105.7379 40.9994 105.4402 41.0136 105.0808 40.8919 105.0029 40.6232 104.5149 40.4537 104.5624 40.1554 103.8441 39.8116 103.051 39.6918 103.077 39.4744 103.4409 38.9434 102.9702 39.0457 102.6718 38.8853 103.2067 38.525 102.985 38.0984 102.7422 38.0389 102.1838 38.1736 101.7793 38.1757 102.1715 37.8616 102.551 37.7904 102.1843 37.5666 102.2086 37.3039 102.6174 37.3749 103.1362 37.3541 103.4912 37.692 103.432 38.0117 103.9998 38.0667 104.4315 38.3058 104.7275 38.5682 105.0736 39.0469 104.7697 39.0885 105.4751 39.5697 105.4464 39.656 Z M 95.681 33.4885 96.1161 33.5962 95.8948 33.9664 95.6476 33.7337 95.681 33.4885 Z M 58.2213 33.4754 58.5003 33.3263 58.8522 33.444 58.8234 33.6176 58.2213 33.4754 Z M 59.3665 33.05 59.5309 32.7572 59.8788 32.5828 60.3355 32.871 60.7468 32.7467 60.8815 32.8875 61.4086 33.0779 61.1209 33.3213 60.0652 33.3973 59.4845 33.6743 59.0618 33.554 58.6114 33.2919 59.0128 32.9769 59.3665 33.05 Z"/>
<path d="M 144.228 89.872 144.6565 89.7832 144.8036 89.4649 144.6837 89.1804 144.3581 89.1709 144.2712 88.9789 144.323 88.6365 144.2211 88.3344 144.4169 88.3034 144.6599 87.9976 144.7288 87.6876 144.6422 87.1735 144.8618 86.9474 144.896 86.785 145.2666 86.6248 145.4812 86.4347 145.417 86.2243 145.0578 86.0083 144.7803 85.4311 144.4152 85.0497 144.4199 84.7932 144.5581 84.3975 144.5028 84.0761 144.3367 83.7532 144.3609 83.6072 144.2423 82.9997 144.3349 82.8505 144.1997 82.6975 144.1507 82.3939 144.4268 82.2583 144.996 82.2544 145.3074 82.5432 145.4917 82.5101 145.719 82.1403 145.7139 80.3506 148.2649 80.3446 150.201 80.3451 151.9732 80.3424 154.7192 80.3523 156.8455 80.3536 156.8448 82.5368 156.8435 84.4287 156.8421 86.1523 156.8415 87.4212 156.8408 89.2945 156.8368 91.6662 156.8341 92.9542 154.3978 92.9539 152.3361 92.9603 150.3809 92.3348 148.1789 91.6497 145.9177 90.9476 144.0216 90.3694 144.0472 90.152 144.228 89.872 Z"/>
<path d="M 190.198 89.1992 190.2005 88.021 189.8845 87.9347 189.4434 88.0349 189.2181 87.8194 189.283 85.4428 189.3417 83.9082 188.9249 81.466 191.8883 81.4695 194.6776 81.4692 197.078 81.4693 198.8524 81.4706 199.0471 81.7208 198.9084 82.0617 198.7009 82.1714 198.3549 82.5851 199.8233 82.5708 199.9528 82.7364 199.8464 82.9807 199.5972 83.1149 199.299 83.1568 199.3242 83.4585 198.9736 83.7295 198.953 84.1106 199.0291 84.3111 198.7953 84.5382 198.7476 84.7304 198.5051 84.8053 198.6502 85.0002 198.4767 85.1395 198.1138 85.0972 197.9291 85.4167 197.9136 86.0973 197.53 86.1927 197.3461 86.4153 197.2197 86.9618 196.7797 87.0692 196.862 87.6668 196.4713 87.9824 196.5378 88.3156 196.7646 88.7623 196.6075 89.2349 194.4228 89.2243 193.3558 89.2147 190.198 89.1992 Z"/>
<path d="M 132.3669 86.9368 132.4541 87.1604 132.218 87.2567 131.9918 87.0485 132.3669 86.9368 Z M 123.1203 69.2331 124.3552 69.2417 127.2594 69.2106 130.2585 69.2473 132.4848 69.2429 132.4887 70.6373 132.4954 72.7123 132.4806 74.2607 132.4834 75.9021 133.9741 76.9341 136.0558 78.4101 137.3022 79.3154 138.7918 80.4177 140.0577 81.3734 141.6134 82.5708 143.1128 83.743 144.4199 84.7932 144.4152 85.0497 144.7803 85.4311 145.0578 86.0083 145.417 86.2243 145.4812 86.4347 145.2666 86.6248 144.896 86.785 144.8618 86.9474 144.6422 87.1735 144.7288 87.6876 144.6599 87.9976 144.4169 88.3034 144.2211 88.3344 144.323 88.6365 144.2712 88.9789 144.3581 89.1709 144.6837 89.1804 144.8036 89.4649 144.6565 89.7832 144.228 89.872 142.1387 90.0207 138.8808 90.2881 138.8907 89.9757 138.5943 89.7583 138.5906 89.4606 138.4255 88.9731 138.0495 88.521 137.4071 88.0381 137.0884 87.8942 136.7221 87.6063 136.5301 87.5442 136.273 87.6693 135.9797 87.5235 136.0637 87.3889 135.8604 87.03 135.7275 86.9353 135.1872 86.9738 134.8481 86.9257 134.2354 86.6977 134.0908 86.426 133.4701 86.1041 132.7523 86.1109 132.471 85.9981 131.8351 85.9744 131.4367 86.0257 131.3447 85.8559 131.0482 85.7342 131.1476 85.4797 131.1248 85.1066 131.002 84.9782 131.0652 84.5011 130.58 84.3358 130.622 84.0405 130.5128 83.8327 130.2479 83.7705 129.8983 83.3917 129.628 83.3098 129.521 83.0588 129.2341 82.8299 129.1439 82.5742 128.983 82.5183 128.6693 82.1436 128.4058 82.0232 128.1555 81.4838 128.4464 81.0729 128.5096 80.7842 128.2711 80.4339 127.8937 80.4667 127.5423 80.2968 127.105 79.8138 127.1469 79.5531 127.0037 79.2431 126.8981 78.6242 127.1816 78.5958 127.2361 79.0321 127.7918 79.2276 127.6893 78.8929 127.2989 78.6106 127.3168 78.3339 127.1247 78.2783 127.496 77.9972 127.7091 78.0788 128.0976 77.9633 127.9351 77.8224 127.7449 78.0324 127.4286 77.9799 127.1581 77.8082 126.9709 77.8725 126.8497 78.5208 126.4836 78.355 126.1074 78.0788 125.9469 78.0442 125.8214 77.4839 125.5225 77.1201 125.0735 76.8718 124.7893 76.534 124.3742 76.2468 124.1914 76.0052 124.2785 75.8521 123.9756 75.1279 124.1117 74.6742 123.9184 74.0509 123.3454 73.4478 122.7823 73.0975 122.681 72.6941 122.9247 72.197 123.2594 71.7551 123.3401 71.3937 123.2279 71.146 123.3514 70.9595 123.4539 70.4734 123.213 69.8026 123.0209 69.7192 123.1203 69.2331 Z"/>
<path d="M 172.4165 80.3678 170.285 80.3528 167.3265 80.3662 165.7672 80.3653 163.1664 80.3621 161.6621 80.3527 159.2467 80.357 156.8455 80.3536 156.8542 77.7705 156.8103 77.5114 156.8256 75.9017 156.8301 73.7494 156.8363 71.456 158.3281 71.4567 160.3751 71.4502 163.5632 71.4613 166.2176 71.4571 167.9458 71.4523 170.3196 71.4496 172.3984 71.4519 172.4026 73.671 172.408 75.8019 172.412 77.5428 172.4165 80.3678 Z"/>
<path d="M 235.5263 71.4808 235.3727 71.2317 235.9194 70.9812 235.7673 70.804 235.9056 69.122 237.9443 69.1655 239.6656 69.1796 239.6682 69.2127 239.6688 70.5251 239.5765 70.6558 239.5832 70.6724 239.5898 70.683 239.5932 70.6901 239.2805 70.6922 238.6395 70.8199 237.4697 70.8675 236.9873 70.9632 235.5263 71.4808 Z"/>
<path d="M 232.4364 77.1277 232.3926 77.1224 232.2624 77.1328 231.0045 77.1057 230.9872 76.8823 230.9872 76.8786 230.8538 75.1659 230.7969 74.2955 231.0415 74.0898 231.368 74.0352 231.6267 74.117 231.3023 74.5125 231.4128 74.6295 231.2979 74.8569 231.5092 75.0756 231.669 75.4679 231.679 75.7872 231.8674 76.0905 232.1373 76.3419 232.3622 76.403 232.4364 77.1277 Z"/>
<path d="M 228.0643 76.3275 228.0301 76.2296 227.8329 76.0507 228.0086 75.9143 228.3017 76.1423 228.0643 76.3275 Z"/>
<path d="M 219.9855 107.225 220.2901 106.9941 220.3587 106.839 220.3315 106.9817 219.9855 107.225 Z M 204.8953 94.8414 204.9596 94.4192 204.6801 94.2598 204.4478 93.9879 204.5279 93.6914 207.1214 93.7049 208.5201 93.7044 210.3041 93.6875 210.4506 93.9404 210.4978 94.2388 210.6088 94.3335 212.642 94.4241 214.0886 94.5099 216.4907 94.6513 216.5205 94.9901 216.8336 95.1217 216.9597 94.6194 216.8899 94.2464 217.1155 94.0737 217.6042 94.255 218.0913 94.2958 218.2558 94.3562 218.2179 94.6329 218.3281 95.1814 218.6344 96.3921 219.1005 97.4523 219.1302 97.6032 219.6141 98.5113 219.9068 98.8726 220.1502 99.0592 220.018 99.2463 219.6863 98.9813 219.7098 98.6898 219.5548 98.6855 219.7648 99.4539 220.0785 100.1635 220.5911 101.1225 220.7148 101.6006 220.9873 102.2085 221.0798 102.2244 221.2531 102.6803 221.3488 103.4956 221.19 104.6043 221.1592 105.238 220.8769 105.4487 220.6731 105.9879 220.741 106.2022 220.4237 106.573 220.1401 106.5642 219.7515 106.6803 219.0091 106.7748 218.8244 106.537 219.0721 106.4845 219.287 106.5784 219.4143 106.4646 218.8726 106.1707 218.5958 105.4851 218.4359 105.4283 218.4353 105.2078 218.0732 105.1417 217.5792 104.8211 217.4247 104.6105 217.3074 103.8267 216.9572 103.7352 216.8404 103.5493 216.7966 103.2337 216.8633 103.0354 216.8484 102.6951 216.5767 102.7525 216.6526 103.057 216.2573 102.8575 215.9945 102.4588 215.7067 101.6855 215.4522 101.4953 215.9321 100.9202 216.0877 100.6253 215.5031 100.2996 215.4028 100.5214 215.6304 100.6446 215.5936 100.9634 215.4465 101.0067 215.095 100.6398 215.2132 100.3872 215.2827 99.8862 215.5453 99.1114 215.5234 98.7016 215.3575 98.5019 215.4057 98.2824 215.0847 97.7738 214.7067 97.7614 214.3851 97.4582 214.2738 97.2062 213.8751 96.9864 213.8571 96.6869 213.5721 96.5352 213.2445 96.0886 212.685 95.8263 212.5294 95.6929 211.9241 95.7083 211.545 96.0722 211.3453 96.1178 210.6109 96.485 209.6156 96.6102 209.6387 96.342 209.496 96.1333 209.0278 95.8028 208.7536 95.5483 208.5874 95.5675 207.8993 95.2425 207.3478 95.0925 207.5213 94.8336 207.1495 94.9102 205.9765 95.0369 205.8245 94.7925 205.5256 94.8269 205.4675 94.9751 205.0042 95.197 204.8953 94.8414 Z"/>
<path d="M 210.3041 93.6875 210.0675 93.2619 210.051 93.0828 210.2109 92.4819 210.0325 92.1473 209.9928 91.828 210.1792 91.4264 210.1686 91.1762 210.5435 90.8756 210.3125 90.7519 210.3107 90.3405 210.1375 90.1483 210.0334 89.7367 209.8888 89.5106 209.4809 87.3824 209.0378 85.2361 208.9655 84.83 211.8219 84.8222 213.377 84.8265 214.5253 84.7932 214.2045 85.0911 213.9712 85.4158 214.2432 85.654 214.3903 85.6723 214.7481 85.9671 214.9616 85.9399 215.3109 86.4152 215.3877 86.6832 215.7219 87.1098 216.3041 87.4572 216.5484 87.84 216.7447 87.9152 217.174 88.2586 217.161 88.4985 217.5188 88.8987 217.8407 89.0331 218.1141 89.2593 218.0911 89.3853 218.2546 89.7198 218.3609 90.1547 218.606 90.2826 218.9331 90.7966 218.8609 90.9344 218.9542 91.2144 219.2695 91.3039 219.096 91.4038 219.2645 91.6626 218.8206 91.8238 218.7558 91.9406 218.9178 92.2896 218.3822 92.737 218.4615 92.8232 218.1767 93.2982 218.2385 93.3945 218.0756 93.7423 218.3077 93.8794 218.0913 94.2958 217.6042 94.255 217.1155 94.0737 216.8899 94.2464 216.9597 94.6194 216.8336 95.1217 216.5205 94.9901 216.4907 94.6513 214.0886 94.5099 212.642 94.4241 210.6088 94.3335 210.4978 94.2388 210.4506 93.9404 210.3041 93.6875 Z"/>
<path d="M 54.6677 119.6264 54.3688 119.769 54.0062 119.7899 53.5369 120.0759 53.2402 120.5207 52.6979 120.2947 52.6158 120.1199 52.6918 119.6368 52.4904 119.0311 52.2977 118.7573 52.3236 118.6535 52.8067 118.2014 52.6504 117.6795 52.7992 117.5579 53.3541 117.8875 53.4225 117.8654 54.0381 118.1101 54.4602 118.4577 54.4589 118.7431 54.6504 118.7363 54.7035 118.9577 55.0791 119.2057 55.0562 119.3181 54.6677 119.6264 Z M 50.6139 116.2781 50.578 116.4608 50.2921 116.5269 50.2455 116.0869 50.6139 116.2781 Z M 52.121 116.7758 51.7727 116.8573 51.454 116.8067 51.4057 116.415 51.0562 116.3576 50.9077 116.1906 50.9604 115.9185 51.1961 115.9026 51.3817 116.1711 51.7029 116.0494 51.9048 116.0729 52.1899 116.3155 52.4348 116.3904 52.4744 116.5448 52.121 116.7758 Z M 50.0592 115.7053 49.6589 115.7353 49.633 115.446 50.5097 115.5696 50.492 115.8248 50.0592 115.7053 Z M 44.4237 113.945 44.0827 113.7523 44.0173 113.5672 44.1568 113.3653 44.472 113.2081 44.9867 113.227 45.1047 113.4728 45.0265 113.7993 44.8341 113.9656 44.4237 113.945 Z M 43.1345 114.0896 43.0308 113.9592 43.2934 113.7178 43.3916 113.9416 43.1345 114.0896 Z M 48.6728 115.3387 48.4416 115.3574 48.2118 115.2015 47.7589 115.2725 47.4731 114.8555 47.4529 114.6355 47.6995 114.6341 48.0621 114.3494 48.3578 114.7577 48.3438 114.9054 48.5604 115.0126 48.7641 115.2638 48.6728 115.3387 Z"/>
<path d="M 152.3951 69.2314 149.9098 69.2287 147.7137 69.24 145.7374 69.2472 143.9269 69.2319 143.1002 69.2448 141.396 69.2405 139.0913 69.2318 139.0941 66.9391 139.0962 65.2147 139.2987 64.8038 139.2256 64.5912 139.3937 64.431 139.2168 64.2534 138.7539 64.1974 138.6286 63.9033 138.6583 63.7181 139.0929 63.1152 139.3004 63.0441 139.5276 62.6981 139.5093 62.4979 139.7602 62.2392 139.8967 61.8343 140.3534 61.2068 140.0628 60.8288 139.6256 60.6524 139.3509 60.3442 139.2163 60.1642 139.3303 59.9575 139.0217 59.5312 139.0719 59.3846 139.0624 57.2995 139.0615 55.7888 139.0909 53.6681 141.2672 53.6664 141.2752 55.9508 141.7548 56.4416 141.9937 56.5662 142.0699 57.0305 142.4852 57.4755 142.8786 57.5362 143.7742 58.303 143.8504 58.5385 144.7867 58.9304 145.0913 58.8735 145.061 59.1877 144.8955 59.4647 144.7432 60.3307 144.9689 60.5909 144.6861 60.6872 144.7137 60.9651 144.5878 61.2924 144.7871 61.306 145.0698 61.5399 145.5143 61.3239 145.8591 60.9946 146.2305 61.2051 146.4087 61.826 146.8239 62.3107 147.0394 62.4285 147.0367 62.8508 147.3202 63.0312 147.7514 63.0611 148.0985 63.8242 148.3826 63.989 148.534 63.7113 149.2362 63.7204 149.6379 63.5198 150.0199 63.617 150.5649 63.5263 151.3694 63.535 151.4137 63.2219 151.6247 63.1154 151.9312 63.3379 151.9899 63.4949 152.3897 63.7241 152.3969 65.3913 152.3987 67.4782 152.3951 69.2314 Z"/>
<path d="M 196.0354 72.8392 196.1577 72.7918 196.0682 72.419 196.5575 72.2611 196.7189 72.1491 196.7714 71.8485 197.0491 71.6228 197.0873 71.2454 196.7187 70.8936 196.8764 70.5243 197.7233 70.4336 198.1181 70.3042 198.4337 70.1222 198.5387 69.7672 198.7705 69.667 198.8841 69.214 198.8296 68.9689 198.3842 68.7675 198.1434 68.3884 197.7674 68.1 200.5239 68.1141 201.9248 68.1302 204.0903 68.1295 205.8245 68.1325 205.7112 68.4785 205.4042 69.7646 204.6994 69.7654 204.6965 72.4557 204.6802 73.3886 204.6852 75.1215 204.4109 75.5863 204.7239 76.0051 204.6407 76.2157 204.7594 76.4745 204.4875 76.7012 204.2236 77.061 204.2054 77.2193 203.8095 77.4588 203.6785 77.6425 203.8301 77.7705 203.5645 78.0511 203.5811 78.5738 203.2926 78.9088 203.4521 79.2885 203.0645 79.3333 202.5867 79.4898 202.4997 79.7302 202.6902 80.0551 202.412 80.1921 201.6061 79.8534 201.4017 79.8543 201.0515 80.1801 201.1198 80.3864 200.8608 80.2097 200.7706 80.3739 200.3993 79.935 200.2839 79.6544 200.4742 79.4743 200.2567 79.1091 200.2718 78.8181 199.5456 78.3395 199.3065 78.3888 199.2324 78.2144 198.6811 77.8937 198.4162 77.6509 198.3659 77.4099 198.6169 76.9418 198.796 76.7213 198.7224 76.5183 198.9403 76.2351 198.6261 76.0759 198.1494 75.9891 197.9202 76.1941 197.7237 76.0631 197.6096 75.7812 197.6763 75.6599 197.578 75.3503 196.8362 74.8547 196.7603 74.7196 196.1559 74.2834 196.0054 74.025 196.0372 73.8626 195.8742 73.6111 195.8477 73.1515 196.0354 72.8392 Z"/>
<path d="M 203.5811 78.5738 203.5645 78.0511 203.8301 77.7705 203.6785 77.6425 203.8095 77.4588 204.2054 77.2193 204.2236 77.061 204.4875 76.7012 204.7594 76.4745 204.6407 76.2157 204.7239 76.0051 204.4109 75.5863 204.6852 75.1215 204.6802 73.3886 204.6965 72.4557 204.6994 69.7654 205.4042 69.7646 207.0819 69.7663 209.0305 69.7656 210.7399 69.765 210.7418 69.9089 210.7516 72.0606 210.7275 73.6664 210.7143 75.6657 210.5601 75.7587 210.7841 76.165 210.5424 76.367 210.329 76.3976 209.9538 76.5915 209.755 76.4987 209.3852 76.4911 209.3033 76.6044 209.3895 76.8954 209.1884 77.0946 208.9821 77.1392 208.8585 77.4039 208.4849 77.5037 208.3008 77.7543 208.2222 78.1071 207.7143 78.1063 207.267 77.8403 206.9279 78.0627 206.9132 78.3097 206.7439 78.4379 206.4625 78.3655 206.3177 78.155 205.7743 78.3498 205.707 78.5685 204.988 78.2622 204.7258 78.3338 204.5736 78.2024 204.3796 78.364 204.0138 78.3953 203.8444 78.5517 203.5811 78.5738 Z"/>
<path d="M 196.0354 72.8392 195.8905 72.8222 195.3505 72.3144 193.4042 72.3635 191.8791 72.3892 189.7913 72.4108 188.5934 72.4065 186.3746 72.3777 186.1006 72.0432 186.2733 71.6779 186.1428 71.4368 186.1649 71.0418 185.9561 70.6776 186.0209 70.4311 185.6398 70.2445 185.5914 69.9097 185.7012 69.7089 185.4968 69.437 185.1353 68.7157 184.9214 68.4498 184.8517 68.1441 184.6534 67.7664 184.4455 67.5246 184.7438 67.0988 184.7033 66.9065 184.8787 66.7481 184.8104 66.5418 184.6104 66.5071 184.6961 66.1381 184.5239 65.8925 184.8425 65.8912 187.4477 65.889 189.1876 65.8896 191.8907 65.89 194.5626 65.8924 196.4812 65.892 196.5178 66.2246 196.8299 66.4505 196.5755 66.7112 196.6492 67.2081 196.8553 67.5878 197.0721 67.7045 197.6241 67.8192 197.7674 68.1 198.1434 68.3884 198.3842 68.7675 198.8296 68.9689 198.8841 69.214 198.7705 69.667 198.5387 69.7672 198.4337 70.1222 198.1181 70.3042 197.7233 70.4336 196.8764 70.5243 196.7187 70.8936 197.0873 71.2454 197.0491 71.6228 196.7714 71.8485 196.7189 72.1491 196.5575 72.2611 196.0682 72.419 196.1577 72.7918 196.0354 72.8392 Z"/>
<path d="M 172.4165 80.3678 172.412 77.5428 172.408 75.8019 172.4026 73.671 175.4337 73.6725 177.7859 73.6735 179.1822 73.675 181.4186 73.6734 184.0584 73.6749 187.391 73.68 187.6173 73.8766 187.9685 73.9809 188.2171 73.9132 188.1828 74.2417 187.8433 74.7118 188.2299 75.0474 188.3256 75.2569 188.6347 75.5202 188.9468 75.6357 188.9354 77.2614 188.9268 79.5003 188.9231 80.3506 185.8514 80.3502 184.1775 80.351 181.9777 80.3498 180.1915 80.3501 177.9809 80.3511 176.7179 80.3542 174.8585 80.3532 172.4165 80.3678 Z"/>
<path d="M 200.4845 81.4667 200.5777 81.2003 200.9086 81.3119 201.0483 81.0987 200.9691 80.9619 201.1914 80.474 201.1198 80.3864 201.0515 80.1801 201.4017 79.8543 201.6061 79.8534 202.412 80.1921 202.6902 80.0551 202.4997 79.7302 202.5867 79.4898 203.0645 79.3333 203.4521 79.2885 203.2926 78.9088 203.5811 78.5738 203.8444 78.5517 204.0138 78.3953 204.3796 78.364 204.5736 78.2024 204.7258 78.3338 204.988 78.2622 205.707 78.5685 205.7743 78.3498 206.3177 78.155 206.4625 78.3655 206.7439 78.4379 206.9132 78.3097 206.9279 78.0627 207.267 77.8403 207.7143 78.1063 208.2222 78.1071 208.3008 77.7543 208.4849 77.5037 208.8585 77.4039 208.9821 77.1392 209.1884 77.0946 209.3895 76.8954 209.3033 76.6044 209.3852 76.4911 209.755 76.4987 209.9538 76.5915 210.329 76.3976 210.5424 76.367 210.7841 76.165 210.5601 75.7587 210.7143 75.6657 210.8464 75.5889 211.1487 75.7398 211.5067 75.6329 211.8254 75.8537 212.0805 76.342 212.8278 76.4345 213.0811 76.683 213.2975 76.7342 213.56 76.5679 213.9363 76.662 214.1211 76.7931 214.4172 76.7479 214.7288 76.5045 214.9961 76.4494 215.0808 76.7662 215.3723 76.886 215.6647 77.1962 215.6975 77.5694 215.5664 77.814 215.7609 77.9674 215.8989 78.3089 216.2908 78.6565 216.3378 78.8588 216.6022 78.9472 216.6953 79.122 217.0554 79.1561 216.1994 79.7546 215.7486 79.8986 215.3805 80.0825 215.3823 80.2429 215.0587 80.398 215.0487 80.5719 214.6089 80.675 214.445 80.9239 213.6487 81.0821 213.2586 81.2373 213.2244 81.276 211.4082 81.2428 209.728 81.1772 209.1837 81.2064 206.9555 81.12 205.7302 81.1412 203.9671 81.1616 203.4838 81.0638 203.5142 81.4697 200.7522 81.445 200.4845 81.4667 Z"/>
<path d="M 195.2784 96.8901 195.0859 97.0717 194.6882 96.8778 194.9641 96.7256 195.2784 96.8901 Z M 190.6546 96.6021 190.4634 96.3238 190.6674 96.1649 190.9181 95.7952 190.9451 95.2725 190.8242 95.1519 190.9558 94.9233 190.9101 94.6324 191.1202 94.4045 191.3878 93.6298 191.2686 93.4824 190.9136 92.5932 190.6594 92.3477 190.7526 92.1357 190.5547 91.7564 190.2062 91.4823 190.198 89.1992 193.3558 89.2147 194.4228 89.2243 196.6075 89.2349 196.4974 89.4001 196.828 89.4557 196.6151 89.6643 196.8319 89.9032 196.8468 90.1178 196.7225 90.4036 196.9515 90.6453 197.1417 90.712 196.8625 90.9373 196.8523 91.1936 196.5657 91.6448 196.2158 91.8211 195.9818 92.4774 195.8295 92.5106 195.7832 93.087 195.5791 93.421 195.7205 93.5674 195.5478 93.6927 197.9332 93.6922 199.73 93.6876 199.5712 94.176 199.5447 94.427 199.6339 94.6712 199.8838 94.8952 200.0144 95.3424 200.2507 95.5051 200.0339 95.5675 199.8171 95.7651 199.604 95.8139 199.549 96.0351 199.8511 96.1963 200.0623 96.2024 200.1266 95.9362 200.3971 95.9294 200.4595 96.2617 200.3691 96.5252 199.9734 96.4606 199.9777 96.6793 199.7943 96.7997 199.9277 97.0042 200.6447 97.4036 200.6961 97.544 201.1111 97.5101 201.21 97.7219 201.0345 98.0592 200.8236 97.9025 200.7499 97.6511 200.4101 97.7182 200.3174 97.4236 200.0105 97.2587 199.7065 97.2309 199.3693 97.0449 199.037 97.1438 198.9641 97.3773 199.0074 97.7676 198.701 97.9486 198.5178 97.5452 198.2476 97.4106 197.8369 97.444 197.5731 97.8207 196.6832 97.6515 196.7022 97.4378 196.3804 97.0764 195.8027 96.9113 195.5759 96.7412 195.5918 96.5029 195.2544 96.4798 195.0561 96.5595 195.0147 96.2841 194.5021 96.4884 194.5081 96.777 194.0444 96.9566 193.3581 96.838 192.5984 96.5496 192.0585 96.4157 191.413 96.4306 190.956 96.4881 190.6546 96.6021 Z"/>
<path d="M 241.8497 66.5375 241.4995 66.2259 241.4997 65.736 241.3737 63.3232 241.2607 61.8803 241.5391 61.7998 241.8725 61.8476 242.23 61.2183 242.7973 60.9344 242.7408 60.7924 243.074 60.5939 242.967 60.4125 243.0168 59.9135 243.2318 59.5745 243.539 59.4159 243.6726 58.7908 245.3965 57.0968 245.7912 57.2189 245.7997 57.5721 246.1177 57.7216 246.8227 57.4765 247.2733 57.4734 247.5712 57.3305 248.2069 57.669 248.5946 57.974 248.6004 60.4587 248.5831 61.0444 249.0506 61.2269 249.3218 61.2156 249.2527 61.4728 249.3997 61.7249 249.275 61.9228 249.5498 62.2563 249.6961 62.1426 249.9739 62.2096 250.2505 62.6801 250.0664 62.7625 250.3836 62.994 249.8776 63.3636 249.1041 63.4536 249.0809 63.6011 248.7033 63.6394 248.4492 63.5327 248.3494 63.8667 247.8589 63.7161 247.3419 63.7748 246.8508 63.9267 246.9504 64.2595 246.2764 64.0416 246.337 63.6704 245.9033 63.8483 245.9923 64.0651 245.7551 64.3251 245.7275 64.6817 245.2834 64.9279 245.1109 64.8217 244.7242 65.0589 244.4151 65.1158 244.0713 65.0504 243.6243 65.0967 243.0936 65.5086 243.2263 65.7466 242.8836 65.8162 242.849 66.0379 242.6312 66.2522 242.4183 66.3112 242.3869 66.5172 242.187 66.823 241.8156 66.6877 241.8497 66.5375 Z M 247.3655 64.2932 247.1535 64.0966 247.4018 63.7964 247.6958 63.9557 247.6507 64.125 247.3655 64.2932 Z"/>
<path d="M 228.0643 76.3275 228.3017 76.1423 228.0086 75.9143 227.8329 76.0507 227.3731 75.7674 226.95 75.6281 227.0861 75.3954 226.8337 75.2181 226.5005 75.18 226.1396 74.6526 225.4783 74.3522 225.2708 74.5278 225.0877 74.4766 224.8402 74.7466 224.3646 74.6932 224.1519 74.5138 223.7326 74.9257 223.4501 74.8515 223.2969 75.0333 222.5704 75.4438 222.592 74.2987 224.7929 74.2963 227.2277 74.3024 229.4098 74.3002 230.7969 74.2955 230.8538 75.1659 230.9872 76.8786 230.729 77.0411 230.6216 77.3326 230.3837 77.3141 230.2127 77.4395 229.6981 77.2085 229.5863 77.0726 229.7594 76.7425 229.5623 76.4629 229.6617 76.285 229.8841 76.248 229.818 76.0337 229.9631 75.8891 229.7059 75.5735 229.9097 75.1948 230.3628 74.9361 230.3905 74.6327 230.1379 74.6878 230.0967 74.9365 229.6815 75.1992 229.4891 75.2365 229.3671 75.6118 229.3226 76.0343 229.1552 76.5161 229.1731 76.9348 229.4659 77.3196 229.4745 77.6526 229.1247 77.7881 229.0097 77.6491 228.2647 77.4729 228.0079 77.1378 227.6827 77.3152 227.4925 77.0559 228.019 76.5495 228.0643 76.3275 Z M 230.9872 76.8823 231.0045 77.1057 232.2624 77.1328 232.3359 77.3933 232.0601 77.5791 231.7087 78.088 231.112 78.1918 230.818 78.1856 230.5051 77.5388 230.7192 77.0584 230.9872 76.8823 Z"/>
<path d="M 241.8065 70.6811 241.9529 70.6737 242.3275 70.3828 242.6619 70.6822 241.8065 70.6811 Z M 235.9056 69.122 235.8648 69.0418 236.4006 67.5755 238.2036 67.6146 240.7826 67.6809 241.628 67.2609 241.8532 67.314 241.8984 67.5605 242.2572 67.8971 241.7044 68.0478 241.3697 68.5024 241.4172 68.6167 241.9645 68.6877 242.2461 69.0348 242.2291 69.3434 242.4728 69.4067 242.5191 69.7359 242.0607 69.8199 241.9815 69.9996 241.6563 70.0507 241.469 70.3259 241.1743 70.3541 241.1462 69.9897 241.0002 69.9479 240.9363 69.866 240.7178 69.7233 240.5983 69.19 239.6682 69.2127 239.6656 69.1796 237.9443 69.1655 235.9056 69.122 Z M 243.7545 69.6457 243.6476 69.9595 243.1148 70.0611 242.7051 70.0762 242.5671 70.2297 242.2575 70.2585 242.2912 69.8106 242.4432 69.7322 242.9778 69.842 243.7545 69.6457 Z"/>
<path d="M 210.7418 69.9089 210.7399 69.765 209.0305 69.7656 207.0819 69.7663 205.4042 69.7646 205.7112 68.4785 205.8245 68.1325 205.5197 66.0225 205.5352 65.7391 205.6838 65.0368 206.17 63.5991 206.4728 62.9766 206.9576 62.4139 207.5334 62.0417 206.3972 61.5744 205.6507 61.5788 205.181 62.0212 204.9676 62.1069 204.8924 62.3887 204.3963 62.322 204.2176 62.1714 204.4164 61.8002 203.9582 61.7841 203.953 61.5838 204.1209 61.0602 203.9136 60.8858 203.4985 60.8252 203.4792 60.6224 203.1996 60.4406 202.9159 60.4288 202.478 60.2933 202.2739 60.3549 201.7494 60.2471 201.2275 60.0344 198.9321 59.5896 198.7118 59.214 198.2628 59.0773 199.2873 57.467 200.3329 55.8667 200.6636 55.9577 202.109 55.3538 202.8164 55.2143 204.9622 56.0374 206.8817 56.8059 209.0062 57.6768 210.6602 58.3651 210.8372 58.9263 211.2991 59.316 212.0413 59.1499 212.2912 59.2215 212.217 59.4105 212.3741 59.921 212.6361 60.213 212.9229 60.079 213.4892 60.11 213.7905 60.3458 213.4425 60.7412 215.8146 61.8036 216.0544 62.7692 216.521 64.8937 216.7095 65.7006 216.0392 67.0127 215.8235 67.8752 215.498 68.046 215.0521 68.5041 214.7658 68.4982 214.4336 68.6974 214.3397 69.1639 213.9126 69.524 213.6829 69.8267 212.5362 69.8647 210.7418 69.9089 Z"/>
<path d="M 196.4812 65.892 194.5626 65.8924 191.8907 65.89 189.1876 65.8896 187.4477 65.889 184.8425 65.8912 184.8441 63.5746 184.8473 61.8898 184.7274 61.7394 184.3531 61.6466 183.952 61.2109 184.3682 60.9272 184.5652 60.712 184.6042 60.4813 184.6178 60.1755 184.5092 59.6003 184.2875 59.4066 184.0675 58.8784 184.1281 58.3374 183.9965 58.0859 184.0344 57.8694 183.914 56.9455 183.9594 56.8067 183.5082 56.0122 183.3004 55.4861 183.3725 55.2331 183.2715 55.0159 183.2998 54.5288 183.4207 54.3699 183.216 54.0833 183.1183 53.6671 186.4081 53.6672 187.7392 53.6673 187.7431 52.8149 188.1735 52.8457 188.464 53.0118 188.7916 53.9389 188.7822 54.0923 189.1095 54.3291 189.7281 54.3266 189.8029 54.4227 190.6318 54.4863 190.8514 54.7351 191.4827 54.6753 191.4922 54.5745 191.9528 54.4622 192.6404 54.5091 193.1305 54.692 193.2953 54.9106 193.6197 54.8893 193.9365 55.371 194.1477 55.3325 194.1629 55.102 194.6247 55.0923 194.7839 55.3105 195.363 55.4433 195.4336 55.6077 196.0828 55.7638 196.3803 55.7174 197.0276 55.4003 197.3262 55.3441 197.5434 55.6381 199.1194 55.6766 199.4882 55.8952 199.7056 55.8399 200.3329 55.8667 199.2873 57.467 197.7194 57.4417 195.9156 58.2621 194.7 58.7684 194.5537 58.6737 194.1056 58.8529 194.102 60.181 193.9699 60.3045 193.3334 60.491 193.1258 60.6191 192.8234 60.9663 192.7882 61.2845 193.0296 61.2989 193.3098 61.5679 193.0604 61.9159 193.0686 62.6569 192.9628 63.1295 193.5423 63.5208 193.932 63.544 194.276 63.8148 194.6173 63.8908 194.9355 64.0855 195.1649 64.4284 195.7009 64.7235 196.0041 64.7908 196.4233 65.2852 196.3762 65.6229 196.4812 65.892 Z"/>
<path d="M 200.2507 95.5051 200.0144 95.3424 199.8838 94.8952 199.6339 94.6712 199.5447 94.427 199.5712 94.176 199.73 93.6876 197.9332 93.6922 195.5478 93.6927 195.7205 93.5674 195.5791 93.421 195.7832 93.087 195.8295 92.5106 195.9818 92.4774 196.2158 91.8211 196.5657 91.6448 196.8523 91.1936 196.8625 90.9373 197.1417 90.712 196.9515 90.6453 196.7225 90.4036 196.8468 90.1178 196.8319 89.9032 196.6151 89.6643 196.828 89.4557 196.4974 89.4001 196.6075 89.2349 196.7646 88.7623 196.5378 88.3156 196.4713 87.9824 196.862 87.6668 196.7797 87.0692 197.2197 86.9618 197.3461 86.4153 197.53 86.1927 197.9136 86.0973 197.9291 85.4167 198.1138 85.0972 198.4767 85.1395 198.6502 85.0002 198.5051 84.8053 200.7323 84.8073 203.1973 84.8026 203.4233 85.0282 203.091 87.5775 202.8916 89.2448 202.5915 91.6911 202.7291 94.352 202.753 95.0375 202.7535 95.053 202.7553 95.0547 202.7585 95.1254 202.7669 95.1354 202.5715 95.2078 202.2776 95.0866 202.061 95.1546 201.8375 95.0598 201.4076 95.0542 200.4842 95.3507 200.2507 95.5051 Z"/>
<path d="M 188.9249 81.466 188.9231 80.3506 188.9268 79.5003 188.9354 77.2614 188.9468 75.6357 188.6347 75.5202 188.3256 75.2569 188.2299 75.0474 187.8433 74.7118 188.1828 74.2417 188.2171 73.9132 187.9685 73.9809 187.6173 73.8766 187.391 73.68 187.0288 73.1576 186.703 72.9821 186.5215 72.5564 186.3746 72.3777 188.5934 72.4065 189.7913 72.4108 191.8791 72.3892 193.4042 72.3635 195.3505 72.3144 195.8905 72.8222 196.0354 72.8392 195.8477 73.1515 195.8742 73.6111 196.0372 73.8626 196.0054 74.025 196.1559 74.2834 196.7603 74.7196 196.8362 74.8547 197.578 75.3503 197.6763 75.6599 197.6096 75.7812 197.7237 76.0631 197.9202 76.1941 198.1494 75.9891 198.6261 76.0759 198.9403 76.2351 198.7224 76.5183 198.796 76.7213 198.6169 76.9418 198.3659 77.4099 198.4162 77.6509 198.6811 77.8937 199.2324 78.2144 199.3065 78.3888 199.5456 78.3395 200.2718 78.8181 200.2567 79.1091 200.4742 79.4743 200.2839 79.6544 200.3993 79.935 200.7706 80.3739 200.8608 80.2097 201.1198 80.3864 201.1914 80.474 200.9691 80.9619 201.0483 81.0987 200.9086 81.3119 200.5777 81.2003 200.4845 81.4667 200.3339 81.4626 200.2129 81.4616 200.2044 81.9536 199.8642 82.0608 200.1065 82.2462 199.8233 82.5708 198.3549 82.5851 198.7009 82.1714 198.9084 82.0617 199.0471 81.7208 198.8524 81.4706 197.078 81.4693 194.6776 81.4692 191.8883 81.4695 188.9249 81.466 Z"/>
<path d="M 152.3897 63.7241 151.9899 63.4949 151.9312 63.3379 151.6247 63.1154 151.4137 63.2219 151.3694 63.535 150.5649 63.5263 150.0199 63.617 149.6379 63.5198 149.2362 63.7204 148.534 63.7113 148.3826 63.989 148.0985 63.8242 147.7514 63.0611 147.3202 63.0312 147.0367 62.8508 147.0394 62.4285 146.8239 62.3107 146.4087 61.826 146.2305 61.2051 145.8591 60.9946 145.5143 61.3239 145.0698 61.5399 144.7871 61.306 144.5878 61.2924 144.7137 60.9651 144.6861 60.6872 144.9689 60.5909 144.7432 60.3307 144.8955 59.4647 145.061 59.1877 145.0913 58.8735 144.7867 58.9304 143.8504 58.5385 143.7742 58.303 142.8786 57.5362 142.4852 57.4755 142.0699 57.0305 141.9937 56.5662 141.7548 56.4416 141.2752 55.9508 141.2672 53.6664 144.333 53.667 146.4578 53.6671 148.5716 53.6672 150.276 53.6672 153.0299 53.6672 155.2969 53.6672 157.0738 53.6669 159.1221 53.6671 162.4051 53.6671 164.4782 53.6656 167.953 53.6671 167.9714 56.0882 167.9622 57.6981 167.9648 60.4629 167.975 62.5647 167.9363 62.5646 165.7525 62.562 163.0207 62.5673 161.3906 62.5679 159.2477 62.5598 156.7614 62.5593 154.4271 62.5569 153.1491 62.5775 152.3802 62.5619 152.3897 63.7241 Z"/>
<path d="M 172.4026 73.671 172.3984 71.4519 170.3196 71.4496 167.9458 71.4523 167.9466 69.037 167.9462 67.0027 169.7787 67.0092 173.2277 67.0194 175.2881 67.0208 178.6199 67.0148 180.2931 67.0141 180.3733 67.1298 181.1227 67.4093 181.5332 67.5059 181.8684 67.3641 182.8372 67.2899 183.1409 67.3501 183.329 67.5116 183.9412 67.6255 184.4558 68.0091 184.8517 68.1441 184.9214 68.4498 185.1353 68.7157 185.4968 69.437 185.7012 69.7089 185.5914 69.9097 185.6398 70.2445 186.0209 70.4311 185.9561 70.6776 186.1649 71.0418 186.1428 71.4368 186.2733 71.6779 186.1006 72.0432 186.3746 72.3777 186.5215 72.5564 186.703 72.9821 187.0288 73.1576 187.391 73.68 184.0584 73.6749 181.4186 73.6734 179.1822 73.675 177.7859 73.6735 175.4337 73.6725 172.4026 73.671 Z"/>
<path d="M 144.4199 84.7932 143.1128 83.743 141.6134 82.5708 140.0577 81.3734 138.7918 80.4177 137.3022 79.3154 136.0558 78.4101 133.9741 76.9341 132.4834 75.9021 132.4806 74.2607 132.4954 72.7123 132.4887 70.6373 132.4848 69.2429 135.2062 69.2481 136.4122 69.2408 139.0913 69.2318 141.396 69.2405 143.1002 69.2448 143.9269 69.2319 145.7374 69.2472 145.737 71.9079 145.7189 73.1991 145.7241 74.466 145.7115 75.9048 145.7174 78.0539 145.7139 80.3506 145.719 82.1403 145.4917 82.5101 145.3074 82.5432 144.996 82.2544 144.4268 82.2583 144.1507 82.3939 144.1997 82.6975 144.3349 82.8505 144.2423 82.9997 144.3609 83.6072 144.3367 83.7532 144.5028 84.0761 144.5581 84.3975 144.4199 84.7932 Z"/>
<path d="M 238.2036 67.6146 237.982 67.3168 238.1762 67.065 238.3792 65.7359 238.5486 65.4567 238.81 65.2223 239.1161 64.595 239.0746 64.1726 239.1562 64.0786 239.62 64.0026 240.1542 63.6659 240.1919 63.3396 240.033 63.1176 240.3346 62.7725 240.3082 62.527 240.5237 62.0721 240.8113 61.8894 241.0816 62.0127 241.2607 61.8803 241.3737 63.3232 241.4997 65.736 241.4995 66.2259 241.8497 66.5375 241.8292 66.6218 241.8288 66.6232 242.0861 66.847 241.8532 67.314 241.628 67.2609 240.7826 67.6809 238.2036 67.6146 Z"/>
<path d="M 231.5092 75.0756 231.2979 74.8569 231.4128 74.6295 231.3023 74.5125 231.6267 74.117 232.2173 73.937 232.4347 73.6608 232.9587 73.3934 233.1536 73.3505 232.3913 72.6839 232.3964 72.4718 232.1188 72.3919 232.0947 72.1395 232.4284 71.7474 232.2531 71.4776 232.7268 71.1413 232.9363 70.8064 233.2252 70.6609 234.0282 71.0416 234.9907 71.4615 234.7177 72.0911 234.3474 72.2486 234.1905 72.6464 234.7741 72.7662 234.8008 73.1088 234.6389 73.6853 234.3433 74.2042 234.3849 74.341 234.0191 74.6399 233.8694 74.877 233.3943 75.2282 233.1908 75.6352 233.0169 75.676 232.7822 76.0448 232.6098 76.036 232.7723 75.5179 232.1659 75.3767 231.5734 75.0287 231.5092 75.0756 Z"/>
<path d="M 162.4397 91.9478 160.2126 91.949 158.7041 91.9478 158.704 92.9495 156.8341 92.9542 156.8368 91.6662 156.8408 89.2945 156.8415 87.4212 156.8421 86.1523 156.8435 84.4287 156.8448 82.5368 156.8455 80.3536 159.2467 80.357 161.6621 80.3527 163.1664 80.3621 165.7672 80.3653 167.3265 80.3662 170.285 80.3528 170.2855 81.4595 170.1962 81.4613 170.196 83.4137 170.1927 85.3599 170.192 87.0198 170.1465 89.2411 170.1442 91.4694 168.0043 91.4664 166.4372 91.4615 164.1614 91.465 162.239 91.466 162.2019 91.7589 162.4397 91.9478 Z"/>
<path d="M 233.2252 70.6609 232.9979 70.5109 232.5929 70.3913 232.449 70.0759 232.3809 69.6757 231.9841 69.5332 231.7598 69.2343 229.4737 69.2349 226.5375 69.2345 224.2297 69.2354 221.9583 69.2359 221.9581 68.6368 222.6858 68.2929 222.8845 68.1363 223.3269 67.9961 223.5445 67.6999 223.9651 67.5026 223.8272 67.1232 223.6376 67.0458 223.5245 66.4467 223.2027 66.006 224.3625 65.6 227.0183 65.6031 228.5493 65.6049 229.3436 64.5753 229.9623 64.1591 230.5232 63.9592 230.8416 63.6278 231.8638 62.9152 232.5654 62.6112 232.9345 62.5264 233.3358 62.5633 234.4379 62.5812 236.23 62.5389 236.1431 62.9141 236.2459 63.0056 236.1306 63.3766 236.34 63.8104 236.2989 64.1988 236.1221 64.36 236.0127 64.6571 236.2037 65.3077 236.0328 65.5842 236.3157 65.6147 236.4381 65.8731 236.3752 67.3786 236.4006 67.5755 235.8648 69.0418 235.9056 69.122 235.7673 70.804 235.9194 70.9812 235.3727 71.2317 235.5263 71.4808 235.5319 71.4941 235.5327 71.4944 235.1756 71.8712 234.7177 72.0911 234.9907 71.4615 234.0282 71.0416 233.2252 70.6609 Z M 235.104 72.3863 234.7717 72.4098 234.7272 72.1707 234.9744 71.9206 235.2926 71.8721 235.3727 71.7532 235.7373 71.644 235.9088 71.7285 236.1743 71.605 236.4882 71.6673 236.6798 71.5318 237.5012 71.5327 238.6155 71.4518 238.3222 71.7605 238.1454 71.7161 237.9288 71.876 237.5508 71.8951 237.2856 72.0361 236.9403 72.0194 236.4641 72.1003 236.1352 72.2191 235.104 72.3863 Z"/>
<path d="M 211.8219 84.8222 211.8923 84.2958 212.3408 84.232 212.4822 84.1415 212.49 83.8872 212.8052 83.6422 213.0635 83.5421 213.6507 83.5448 214.2338 83.1782 214.594 83.0424 214.7631 83.0765 215.0598 82.6815 215.574 82.4277 215.7282 82.6734 215.9592 82.5585 216.1987 82.3135 216.6532 82.2521 216.9116 82.305 217.1813 81.9113 217.4104 81.791 217.6568 81.5322 217.7038 81.2644 218.3842 81.299 220.8129 81.366 222.5169 81.3753 224.7443 81.3687 226.5416 81.3605 228.2846 81.3645 229.9849 81.3503 230.2413 81.4657 230.5559 81.8607 230.683 82.1837 230.1877 82.2495 229.8417 82.3602 229.6058 82.2741 229.2948 82.5228 229.5002 82.7187 229.9934 82.584 230.1882 82.5963 230.3562 82.8231 230.6947 82.642 230.8082 82.7236 230.9539 83.2541 230.8087 83.5149 230.498 83.5575 230.291 83.8611 229.9786 84.0499 229.6677 83.9827 229.4533 83.8417 229.1417 83.9052 229.2246 84.2537 228.9875 84.6391 228.5018 84.8625 228.6328 84.9858 228.8632 84.8375 229.6333 84.7836 229.5876 85.0535 229.3257 85.2129 229.1978 85.408 228.902 85.4593 228.4437 85.4006 228.0369 85.5027 227.9081 85.4476 227.3967 85.8064 226.9215 86.0019 226.4964 86.2991 226.002 86.9559 225.8342 87.2722 225.3985 87.1888 224.5569 87.3024 224.5915 87.2826 223.5023 86.3493 222.152 85.2323 219.6601 85.2036 219.6894 84.9424 219.3593 84.5645 219.1068 84.4655 216.3465 84.3575 216.1144 84.3172 215.5748 84.518 214.5253 84.7932 213.377 84.8265 211.8219 84.8222 Z M 230.3605 81.3504 230.406 81.3468 230.4984 81.3499 230.2913 81.3377 230.3605 81.3504 Z"/>
<path d="M 167.9648 60.4629 167.9622 57.6981 167.9714 56.0882 167.953 53.6671 170.9505 53.6671 172.901 53.6669 175.9125 53.667 178.0758 53.6672 180.9556 53.6666 183.1183 53.6671 183.216 54.0833 183.4207 54.3699 183.2998 54.5288 183.2715 55.0159 183.3725 55.2331 183.3004 55.4861 183.5082 56.0122 183.9594 56.8067 183.914 56.9455 184.0344 57.8694 183.9965 58.0859 184.1281 58.3374 184.0675 58.8784 184.2875 59.4066 184.5092 59.6003 184.6178 60.1755 184.6042 60.4813 182.2832 60.4812 180.6184 60.4816 177.5778 60.4667 174.5487 60.4638 172.5132 60.4618 170.2968 60.4626 167.9648 60.4629 Z"/>
<path d="M 210.7143 75.6657 210.7275 73.6664 210.7516 72.0606 210.7418 69.9089 212.5362 69.8647 213.6829 69.8267 213.9126 69.524 214.3397 69.1639 214.4336 68.6974 214.7658 68.4982 214.4861 68.7208 214.4333 69.1587 214.6084 69.538 215.468 69.9501 216.0762 69.9509 217.786 69.1848 218.627 68.7755 221.267 68.3596 223.7939 67.3847 223.8272 67.1232 223.9651 67.5026 223.5445 67.6999 223.3269 67.9961 222.8845 68.1363 222.6858 68.2929 221.9581 68.6368 220.779 69.1135 220.2779 69.2809 220.2783 71.1738 220.2758 72.2598 219.9527 72.3734 220.1025 72.6471 220.0958 72.9465 219.8045 73.4869 219.7904 73.7305 219.6364 73.8828 219.4653 74.528 219.3342 74.5522 218.7169 75.0464 218.3536 75.1389 218.2438 74.9976 217.7603 75.2842 217.5342 75.4988 217.5083 75.8569 217.3749 76.0234 216.9209 75.8399 216.5171 76.3468 216.606 76.7451 216.3336 76.8527 216.275 77.1153 215.8043 77.2275 215.6647 77.1962 215.3723 76.886 215.0808 76.7662 214.9961 76.4494 214.7288 76.5045 214.4172 76.7479 214.1211 76.7931 213.9363 76.662 213.56 76.5679 213.2975 76.7342 213.0811 76.683 212.8278 76.4345 212.0805 76.342 211.8254 75.8537 211.5067 75.6329 211.1487 75.7398 210.8464 75.5889 210.7143 75.6657 Z"/>
<path d="M 170.2855 81.4595 170.285 80.3528 172.4165 80.3678 174.8585 80.3532 176.7179 80.3542 177.9809 80.3511 180.1915 80.3501 181.9777 80.3498 184.1775 80.351 185.8514 80.3502 188.9231 80.3506 188.9249 81.466 189.3417 83.9082 189.283 85.4428 189.2181 87.8194 188.8614 87.6849 188.3721 87.5903 187.8003 87.1666 187.5887 87.1109 187.452 87.2947 186.8737 87.2894 186.7701 87.1648 186.2284 87.3873 186.0402 87.2865 185.4746 87.4282 185.4393 87.5665 184.9091 87.5169 184.6689 87.4185 183.8963 87.3106 183.8165 87.1211 183.4199 87.47 182.6196 87.2468 182.3281 87.243 182.1272 87.0434 181.6876 87.3494 181.4834 87.2807 181.4598 87.0232 181.2231 87.0153 181.0286 86.7682 180.5882 86.6751 180.3347 86.8848 180.0651 86.6632 179.7618 86.7394 179.2005 86.5274 178.7596 86.542 178.7089 86.2728 178.3577 86.0035 178.2979 86.1736 177.8932 86.0989 177.6542 86.1795 177.2534 85.8287 176.9545 85.78 176.9555 83.3746 176.9493 81.4629 174.5321 81.4616 172.1507 81.4614 170.2855 81.4595 Z"/>
<path d="M 139.0913 69.2318 136.4122 69.2408 135.2062 69.2481 132.4848 69.2429 130.2585 69.2473 127.2594 69.2106 124.3552 69.2417 123.1203 69.2331 122.7963 68.9699 122.6695 68.6723 122.6232 68.2572 122.7242 67.9578 122.672 67.7674 122.4527 67.6034 122.3551 67.3684 122.5342 67.0929 122.743 66.411 122.961 66.1151 123.2011 65.2812 123.3187 64.579 123.4632 63.3185 123.4212 63.0688 123.6562 62.1753 123.6463 61.526 123.7671 61.0274 123.6689 60.9069 123.7541 60.3232 123.6179 59.9138 124.5067 59.9185 124.6781 59.7381 125.1849 60.0003 125.46 59.9071 125.9498 60.1149 126.2272 60.4155 126.3297 61.0294 126.5566 61.1843 127.5676 61.3061 128.2405 61.1047 128.4627 60.985 129.0566 60.9468 129.7801 61.0677 130.4673 61.1299 131.0824 60.8988 131.3914 61.0116 132.0397 60.9366 132.5344 60.7265 133.2194 60.6516 133.5843 60.5483 134.2978 60.5015 134.7541 60.3306 136.9388 60.3354 139.3509 60.3442 139.6256 60.6524 140.0628 60.8288 140.3534 61.2068 139.8967 61.8343 139.7602 62.2392 139.5093 62.4979 139.5276 62.6981 139.3004 63.0441 139.0929 63.1152 138.6583 63.7181 138.6286 63.9033 138.7539 64.1974 139.2168 64.2534 139.3937 64.431 139.2256 64.5912 139.2987 64.8038 139.0962 65.2147 139.0941 66.9391 139.0913 69.2318 Z"/>
<path d="M 220.2758 72.2598 220.2783 71.1738 220.2779 69.2809 220.779 69.1135 221.9581 68.6368 221.9583 69.2359 224.2297 69.2354 226.5375 69.2345 229.4737 69.2349 231.7598 69.2343 231.9841 69.5332 232.3809 69.6757 232.449 70.0759 232.5929 70.3913 232.9979 70.5109 233.2252 70.6609 232.9363 70.8064 232.7268 71.1413 232.2531 71.4776 232.4284 71.7474 232.0947 72.1395 232.1188 72.3919 232.3964 72.4718 232.3913 72.6839 233.1536 73.3505 232.9587 73.3934 232.4347 73.6608 232.2173 73.937 231.6267 74.117 231.368 74.0352 231.0415 74.0898 230.7969 74.2955 229.4098 74.3002 227.2277 74.3024 224.7929 74.2963 222.592 74.2987 220.2803 74.2996 220.2758 72.2598 Z"/>
<path d="M 239.5765 70.6558 239.6688 70.5251 239.6682 69.2127 240.5983 69.19 240.7178 69.7233 240.9363 69.866 240.6861 69.8384 240.5327 69.9816 240.5049 70.4086 240.2206 70.6224 239.608 70.749 239.5765 70.6558 Z M 241.1743 70.3541 240.9567 70.2417 241.0002 69.9479 241.1462 69.9897 241.1743 70.3541 Z"/>
<path d="M 219.3572 91.3536 219.3558 91.3531 219.3801 91.3425 219.3572 91.3536 Z M 220.5913 90.097 220.9908 90.2049 220.7043 90.3969 220.5913 90.097 Z M 219.2695 91.3039 218.9542 91.2144 218.8609 90.9344 218.9331 90.7966 218.606 90.2826 218.3609 90.1547 218.2546 89.7198 218.0911 89.3853 218.1141 89.2593 217.8407 89.0331 217.5188 88.8987 217.161 88.4985 217.174 88.2586 216.7447 87.9152 216.5484 87.84 216.3041 87.4572 215.7219 87.1098 215.3877 86.6832 215.3109 86.4152 214.9616 85.9399 214.7481 85.9671 214.3903 85.6723 214.2432 85.654 213.9712 85.4158 214.2045 85.0911 214.5253 84.7932 215.5748 84.518 216.1144 84.3172 216.3465 84.3575 219.1068 84.4655 219.3593 84.5645 219.6894 84.9424 219.6601 85.2036 222.152 85.2323 223.5023 86.3493 224.5915 87.2826 224.5569 87.3024 223.7932 87.8225 223.3301 88.3909 223.1039 88.9677 222.4788 89.1604 222.3534 89.4585 221.7444 89.7645 221.6382 89.9825 221.4251 89.775 221.2018 89.7157 220.8121 90.0687 220.5646 90.0979 220.3957 90.3133 219.9834 90.3327 219.7302 90.2679 219.5535 90.5921 219.7407 90.8534 219.2695 91.3039 Z M 220.0384 90.8207 219.9683 90.4942 220.3543 90.4751 220.0384 90.8207 Z"/>
<path d="M 167.9462 67.0027 167.9407 64.3817 167.9363 62.5646 167.975 62.5647 167.9648 60.4629 170.2968 60.4626 172.5132 60.4618 174.5487 60.4638 177.5778 60.4667 180.6184 60.4816 182.2832 60.4812 184.6042 60.4813 184.5652 60.712 184.3682 60.9272 183.952 61.2109 184.3531 61.6466 184.7274 61.7394 184.8473 61.8898 184.8441 63.5746 184.8425 65.8912 184.5239 65.8925 184.6961 66.1381 184.6104 66.5071 184.8104 66.5418 184.8787 66.7481 184.7033 66.9065 184.7438 67.0988 184.4455 67.5246 184.6534 67.7664 184.8517 68.1441 184.4558 68.0091 183.9412 67.6255 183.329 67.5116 183.1409 67.3501 182.8372 67.2899 181.8684 67.3641 181.5332 67.5059 181.1227 67.4093 180.3733 67.1298 180.2931 67.0141 178.6199 67.0148 175.2881 67.0208 173.2277 67.0194 169.7787 67.0092 167.9462 67.0027 Z"/>
<path d="M 211.8219 84.8222 208.9655 84.83 206.1218 84.8147 204.5075 84.7869 203.1973 84.8026 200.7323 84.8073 198.5051 84.8053 198.7476 84.7304 198.7953 84.5382 199.0291 84.3111 198.953 84.1106 198.9736 83.7295 199.3242 83.4585 199.299 83.1568 199.5972 83.1149 199.8464 82.9807 199.9528 82.7364 199.8233 82.5708 200.1065 82.2462 199.8642 82.0608 200.2044 81.9536 200.2129 81.4616 200.3339 81.4626 200.4845 81.4667 200.7522 81.445 203.5142 81.4697 203.4838 81.0638 203.9671 81.1616 205.7302 81.1412 206.9555 81.12 209.1837 81.2064 209.728 81.1772 211.4082 81.2428 213.2244 81.276 213.2586 81.2373 214.1948 81.253 217.1268 81.251 217.7038 81.2644 217.6568 81.5322 217.4104 81.791 217.1813 81.9113 216.9116 82.305 216.6532 82.2521 216.1987 82.3135 215.9592 82.5585 215.7282 82.6734 215.574 82.4277 215.0598 82.6815 214.7631 83.0765 214.594 83.0424 214.2338 83.1782 213.6507 83.5448 213.0635 83.5421 212.8052 83.6422 212.49 83.8872 212.4822 84.1415 212.3408 84.232 211.8923 84.2958 211.8219 84.8222 Z"/>
<path d="M 183.5218 100.7164 183.7935 100.1679 183.9609 100.2117 183.5218 100.7164 Z M 162.4397 91.9478 162.2019 91.7589 162.239 91.466 164.1614 91.465 166.4372 91.4615 168.0043 91.4664 170.1442 91.4694 170.1465 89.2411 170.192 87.0198 170.1927 85.3599 170.196 83.4137 170.1962 81.4613 170.2855 81.4595 172.1507 81.4614 174.5321 81.4616 176.9493 81.4629 176.9555 83.3746 176.9545 85.78 177.2534 85.8287 177.6542 86.1795 177.8932 86.0989 178.2979 86.1736 178.3577 86.0035 178.7089 86.2728 178.7596 86.542 179.2005 86.5274 179.7618 86.7394 180.0651 86.6632 180.3347 86.8848 180.5882 86.6751 181.0286 86.7682 181.2231 87.0153 181.4598 87.0232 181.4834 87.2807 181.6876 87.3494 182.1272 87.0434 182.3281 87.243 182.6196 87.2468 183.4199 87.47 183.8165 87.1211 183.8963 87.3106 184.6689 87.4185 184.9091 87.5169 185.4393 87.5665 185.4746 87.4282 186.0402 87.2865 186.2284 87.3873 186.7701 87.1648 186.8737 87.2894 187.452 87.2947 187.5887 87.1109 187.8003 87.1666 188.3721 87.5903 188.8614 87.6849 189.2181 87.8194 189.4434 88.0349 189.8845 87.9347 190.2005 88.021 190.198 89.1992 190.2062 91.4823 190.5547 91.7564 190.7526 92.1357 190.6594 92.3477 190.9136 92.5932 191.2686 93.4824 191.3878 93.6298 191.1202 94.4045 190.9101 94.6324 190.9558 94.9233 190.8242 95.1519 190.9451 95.2725 190.9181 95.7952 190.6674 96.1649 190.4634 96.3238 190.6546 96.6021 190.0352 96.6882 189.1748 97.0156 189.084 96.8661 188.7135 96.7819 188.762 96.4909 188.499 96.4473 188.3588 96.6471 188.2013 96.5863 188.0363 96.9041 188.3175 97.1749 188.2816 97.3837 187.8555 97.7476 187.702 98.037 187.2166 98.4353 186.646 98.6844 186.3271 98.6985 185.7863 98.9112 185.3939 98.9962 184.9478 98.8844 184.5897 99.0667 184.9509 99.3528 184.355 99.6484 184.1177 99.4718 184.0783 99.8455 183.7816 100.0867 183.5566 99.9448 183.5724 100.2914 183.2006 100.7615 183.0746 100.6403 182.4717 100.6725 182.8884 100.9874 183.0669 101.0352 182.9171 101.3164 182.7134 101.8694 182.5466 101.7318 182.2225 101.8681 182.2321 102.0487 182.6884 102.0166 182.5399 102.9273 182.729 103.7482 182.8939 103.9996 182.8667 104.2189 183.0014 104.6018 183.165 104.634 183.149 104.8767 182.8065 104.996 182.7821 105.1632 182.465 105.0587 182.2047 104.7705 181.6734 104.6756 180.8603 104.6501 180.3806 104.3113 179.8159 104.21 179.5461 104.0074 178.9356 103.8688 178.7915 103.4197 178.5492 102.9025 178.1913 102.5382 178.2264 102.1928 178.0379 101.8505 178.1081 101.5147 177.8481 101.1623 177.5964 101.1307 177.2219 100.8127 177.1754 100.564 176.7667 100.0372 176.489 99.9292 176.3083 99.7476 176.072 99.0638 175.8417 98.8901 175.7624 98.5729 175.507 98.258 175.4757 97.9653 175.228 97.7579 175.1824 97.594 174.7074 97.3145 174.5921 97.1179 174.1767 96.9847 174.1802 96.7503 173.9212 96.6862 173.714 96.3853 173.5375 96.4509 172.8519 96.3647 172.379 96.3926 171.8413 96.1914 171.6548 96.4185 171.363 96.3986 171.0083 96.4957 170.7321 96.9684 170.6926 97.246 170.4917 97.5601 170.1207 97.9336 170.0299 98.1721 169.589 98.126 169.3259 98.0403 169.0519 97.7868 168.6896 97.7337 168.3878 97.5106 168.12 97.4784 167.744 97.2853 167.4704 96.9909 167.3217 96.9805 166.853 96.6222 166.7061 96.2715 166.5565 96.1311 166.4911 95.8078 166.4857 95.3842 166.1579 95.0542 166.0397 94.6165 165.8141 94.3885 165.4028 94.1551 165.13 94.0795 164.6085 93.7184 164.5016 93.5111 164.1151 93.3122 163.8992 93.0448 163.6058 92.8214 163.1242 92.6169 162.7597 92.062 162.4397 91.9478 Z"/>
<path d="M 156.8455 80.3536 154.7192 80.3523 151.9732 80.3424 150.201 80.3451 148.2649 80.3446 145.7139 80.3506 145.7174 78.0539 145.7115 75.9048 145.7241 74.466 145.7189 73.1991 145.737 71.9079 145.7374 69.2472 147.7137 69.24 149.9098 69.2287 152.3951 69.2314 152.3966 71.461 154.107 71.4644 156.8363 71.456 156.8301 73.7494 156.8256 75.9017 156.8103 77.5114 156.8542 77.7705 156.8455 80.3536 Z"/>
<path d="M 238.2036 67.6146 236.4006 67.5755 236.3752 67.3786 236.4381 65.8731 236.3157 65.6147 236.0328 65.5842 236.2037 65.3077 236.0127 64.6571 236.1221 64.36 236.2989 64.1988 236.34 63.8104 236.1306 63.3766 236.2459 63.0056 236.1431 62.9141 236.23 62.5389 237.814 62.5305 238.513 62.5529 240.3082 62.527 240.3346 62.7725 240.033 63.1176 240.1919 63.3396 240.1542 63.6659 239.62 64.0026 239.1562 64.0786 239.0746 64.1726 239.1161 64.595 238.81 65.2223 238.5486 65.4567 238.3792 65.7359 238.1762 67.065 237.982 67.3168 238.2036 67.6146 Z"/>
<path d="M 230.6166 81.3493 230.5648 81.3498 230.3605 81.3504 230.2913 81.3377 230.2449 81.3494 229.9889 81.3503 229.9849 81.3503 228.2846 81.3645 226.5416 81.3605 224.7443 81.3687 222.5169 81.3753 220.8129 81.366 218.3842 81.299 217.7038 81.2644 217.1268 81.251 214.1948 81.253 213.2586 81.2373 213.6487 81.0821 214.445 80.9239 214.6089 80.675 215.0487 80.5719 215.0587 80.398 215.3823 80.2429 215.3805 80.0825 215.7486 79.8986 216.1994 79.7546 217.0554 79.1561 217.0091 79.2746 217.3155 79.7117 217.7044 79.8997 217.9613 79.888 218.4083 79.6045 218.7004 79.8292 219.3515 79.6802 220.2997 79.2809 220.4292 79.387 220.7633 79.216 220.9375 78.9538 220.8651 78.7283 221.0635 78.4044 221.4317 78.133 221.6102 77.723 222.1163 77.1665 222.2284 76.8113 222.4432 76.8887 222.5983 77.1098 222.9681 77.2078 223.116 77.1103 223.6654 76.2344 223.9517 76.4301 224.2204 76.0788 224.3743 76.0646 224.9792 75.5214 224.9476 75.3337 225.1191 75.119 225.105 74.8658 226.2554 75.6048 226.5005 75.18 226.8337 75.2181 227.0861 75.3954 226.95 75.6281 227.3731 75.7674 227.8329 76.0507 228.0301 76.2296 228.0027 76.532 227.7678 76.6489 227.4257 76.9941 227.3544 77.1883 227.511 77.3882 228.0709 77.2935 228.0302 77.4347 228.2186 77.6641 228.4618 77.7634 228.964 77.7971 229.2766 78.1529 229.797 78.3857 229.6543 78.5148 229.524 79.1906 229.743 79.3452 229.6673 79.6316 229.4492 79.7607 229.4071 79.9932 229.6711 80.0695 229.6611 80.2962 229.0428 80.3067 229.2553 80.5386 229.5436 80.6179 229.5884 80.4381 230.1107 80.5532 230.3352 80.5243 230.6166 81.3493 Z M 231.112 78.1918 231.7087 78.088 231.6296 78.3184 231.1948 78.7786 231.2164 79.0887 230.7562 79.3011 230.5073 79.6736 230.2878 79.6276 230.4937 79.0139 230.8816 78.639 231.112 78.1918 Z"/>
<path d="M 139.3509 60.3442 136.9388 60.3354 134.7541 60.3306 134.2978 60.5015 133.5843 60.5483 133.2194 60.6516 132.5344 60.7265 132.0397 60.9366 131.3914 61.0116 131.0824 60.8988 130.4673 61.1299 129.7801 61.0677 129.0566 60.9468 128.4627 60.985 128.2405 61.1047 127.5676 61.3061 126.5566 61.1843 126.3297 61.0294 126.2272 60.4155 125.9498 60.1149 125.46 59.9071 125.1849 60.0003 124.6781 59.7381 124.0315 59.7055 123.8727 59.8031 123.5404 59.6395 123.8014 59.3839 123.8243 59.1171 123.6826 58.9772 123.8659 58.7136 123.3786 58.6833 123.3112 58.3732 123.8687 58.2452 123.282 58.034 123.0574 57.4646 122.8716 57.2957 122.6454 56.4733 122.2071 56.1442 121.9592 55.5295 122.1242 55.1633 122.3356 55.0733 122.7399 55.2576 123.0413 55.3038 123.4809 55.4959 124.247 55.519 124.8943 55.632 125.559 55.5548 125.7239 55.6987 126.1909 55.5917 126.6578 56.1626 126.1467 56.4206 126.3635 56.6294 126.5159 56.3402 126.9209 56.3587 126.6708 56.6654 126.8578 57.0664 126.7553 57.543 126.1224 57.7544 126.5151 57.897 126.904 57.4319 127.3179 57.3353 127.1102 56.685 127.1591 56.3208 127.5096 55.8234 127.2334 55.6232 127.1451 55.1669 126.5466 54.7697 126.963 54.7938 127.0908 54.5566 126.9218 54.4329 126.924 54.2138 126.4694 54.1132 126.2149 53.8025 126.362 53.6599 128.1375 53.6671 131.7416 53.6669 134.7087 53.6673 136.5168 53.6668 139.0909 53.6681 139.0615 55.7888 139.0624 57.2995 139.0719 59.3846 139.0217 59.5312 139.3303 59.9575 139.2163 60.1642 139.3509 60.3442 Z M 126.5056 55.3614 126.6915 55.4278 126.767 55.6625 127.2016 55.8154 126.8764 55.952 126.689 55.8195 126.681 55.5509 126.5056 55.3614 Z"/>
<path d="M 217.0554 79.1561 216.6953 79.122 216.6022 78.9472 216.3378 78.8588 216.2908 78.6565 215.8989 78.3089 215.7609 77.9674 215.5664 77.814 215.6975 77.5694 215.6647 77.1962 215.8043 77.2275 216.275 77.1153 216.3336 76.8527 216.606 76.7451 216.5171 76.3468 216.9209 75.8399 217.3749 76.0234 217.5083 75.8569 217.5342 75.4988 217.7603 75.2842 218.2438 74.9976 218.3536 75.1389 218.7169 75.0464 219.3342 74.5522 219.4653 74.528 219.6364 73.8828 219.7904 73.7305 219.8045 73.4869 220.0958 72.9465 220.1025 72.6471 219.9527 72.3734 220.2758 72.2598 220.2803 74.2996 222.592 74.2987 222.5704 75.4438 223.2969 75.0333 223.4501 74.8515 223.7326 74.9257 224.1519 74.5138 224.3646 74.6932 224.8402 74.7466 225.0877 74.4766 225.2708 74.5278 225.4783 74.3522 226.1396 74.6526 226.5005 75.18 226.2554 75.6048 225.105 74.8658 225.1191 75.119 224.9476 75.3337 224.9792 75.5214 224.3743 76.0646 224.2204 76.0788 223.9517 76.4301 223.6654 76.2344 223.116 77.1103 222.9681 77.2078 222.5983 77.1098 222.4432 76.8887 222.2284 76.8113 222.1163 77.1665 221.6102 77.723 221.4317 78.133 221.0635 78.4044 220.8651 78.7283 220.9375 78.9538 220.7633 79.216 220.4292 79.387 220.2997 79.2809 219.3515 79.6802 218.7004 79.8292 218.4083 79.6045 217.9613 79.888 217.7044 79.8997 217.3155 79.7117 217.0091 79.2746 217.0554 79.1561 Z"/>
<path d="M 197.7674 68.1 197.6241 67.8192 197.0721 67.7045 196.8553 67.5878 196.6492 67.2081 196.5755 66.7112 196.8299 66.4505 196.5178 66.2246 196.4812 65.892 196.3762 65.6229 196.4233 65.2852 196.0041 64.7908 195.7009 64.7235 195.1649 64.4284 194.9355 64.0855 194.6173 63.8908 194.276 63.8148 193.932 63.544 193.5423 63.5208 192.9628 63.1295 193.0686 62.6569 193.0604 61.9159 193.3098 61.5679 193.0296 61.2989 192.7882 61.2845 192.8234 60.9663 193.1258 60.6191 193.3334 60.491 193.9699 60.3045 194.102 60.181 194.1056 58.8529 194.5537 58.6737 194.7 58.7684 195.9156 58.2621 197.7194 57.4417 199.2873 57.467 198.2628 59.0773 198.7118 59.214 198.9321 59.5896 201.2275 60.0344 201.7494 60.2471 202.2739 60.3549 202.478 60.2933 202.9159 60.4288 203.1996 60.4406 203.4792 60.6224 203.4985 60.8252 203.9136 60.8858 204.1209 61.0602 203.953 61.5838 203.9582 61.7841 204.4164 61.8002 204.2176 62.1714 204.3963 62.322 204.8924 62.3887 204.9676 62.1069 205.181 62.0212 205.6507 61.5788 206.3972 61.5744 207.5334 62.0417 206.9576 62.4139 206.4728 62.9766 206.17 63.5991 205.6838 65.0368 205.5352 65.7391 205.5197 66.0225 205.8245 68.1325 204.0903 68.1295 201.9248 68.1302 200.5239 68.1141 197.7674 68.1 Z"/>
<path d="M 152.3951 69.2314 152.3987 67.4782 152.3969 65.3913 152.3897 63.7241 152.3802 62.5619 153.1491 62.5775 154.4271 62.5569 156.7614 62.5593 159.2477 62.5598 161.3906 62.5679 163.0207 62.5673 165.7525 62.562 167.9363 62.5646 167.9407 64.3817 167.9462 67.0027 167.9466 69.037 167.9458 71.4523 166.2176 71.4571 163.5632 71.4613 160.3751 71.4502 158.3281 71.4567 156.8363 71.456 154.107 71.4644 152.3966 71.461 152.3951 69.2314 Z"/>
</g>
</svg>